<?xml version="1.0" encoding="UTF-8" standalone="no"?>
<!-- Created with Inkscape (http://www.inkscape.org/) -->

<svg
   width="20.32mm"
   height="128.5mm"
   viewBox="0 0 20.319999 128.5"
   version="1.1"
   id="svg5"
   inkscape:version="1.2.2 (b0a84865, 2022-12-01)"
   sodipodi:docname="Estlin-uJazz.svg"
   xmlns:inkscape="http://www.inkscape.org/namespaces/inkscape"
   xmlns:sodipodi="http://sodipodi.sourceforge.net/DTD/sodipodi-0.dtd"
   xmlns="http://www.w3.org/2000/svg"
   xmlns:svg="http://www.w3.org/2000/svg">
  <sodipodi:namedview
     id="namedview7"
     pagecolor="#ffffff"
     bordercolor="#000000"
     borderopacity="0.25"
     inkscape:showpageshadow="2"
     inkscape:pageopacity="0.0"
     inkscape:pagecheckerboard="0"
     inkscape:deskcolor="#d1d1d1"
     inkscape:document-units="mm"
     showgrid="false"
     inkscape:zoom="0.914906"
     inkscape:cx="139.35858"
     inkscape:cy="245.3804"
     inkscape:window-width="1390"
     inkscape:window-height="815"
     inkscape:window-x="0"
     inkscape:window-y="25"
     inkscape:window-maximized="0"
     inkscape:current-layer="layer2" />
  <defs
     id="defs2" />
  <g
     inkscape:label="Layer 1"
     inkscape:groupmode="layer"
     id="layer1">
    <rect
       style="fill:#bacdf8;stroke-width:0.264583;fill-opacity:1"
       id="rect1034"
       width="20.32"
       height="128.5"
       x="-7.9330327e-08"
       y="2.2787507e-08" />
    <g
       aria-label="µJazz"
       id="text113"
       style="font-size:3.175px;stroke-width:0.264583"
       inkscape:label="text_µjazz"
       transform="translate(0,1.5875)">
      <path
         d="M 6.1512433,6.3753837 C 6.1089099,6.1496058 5.8901875,5.6416055 5.6150207,5.6416055 c -0.1340557,0 -0.2540002,0.1058334 -0.2540002,0.239889 0,0.098778 0.049389,0.176389 0.1340557,0.2187224 0.2257779,0.4092224 0.2751668,0.8890005 0.2751668,1.3617231 0,0.1693334 -0.00706,0.3316113 -0.014111,0.4938892 -0.014111,0.3104446 -0.091722,0.945445 -0.2610557,1.0724451 -0.077611,0.070556 -0.2116668,0.091722 -0.3739447,0.091722 -0.2116668,0 -0.4233336,-0.049389 -0.4938892,-0.098778 -0.1905003,-0.1340552 -0.2540003,-0.6985 -0.2540003,-1.0301113 0,-0.3316114 0.1340556,-1.3617231 0.2116668,-1.7709456 0.021167,-0.0635 0.0635,-0.2187224 0.0635,-0.289278 0,-0.1340556 -0.1128889,-0.2469446 -0.239889,-0.2469446 -0.1199445,0 -0.1481668,0.049389 -0.176389,0.1058334 0,0.042333 -0.070556,0.1340557 -0.091722,0.176389 L 3.477186,10.065442 c -0.042333,0.03528 -0.077611,0.09172 -0.077611,0.134055 0,0.0071 0,0.02117 0.00706,0.02822 l 0.084667,0.197555 c 0.028222,0.0635 0.1270001,0.09878 0.2187224,0.09878 0.021167,0 0.049389,0 0.070556,-0.0071 0.1058334,-0.01411 0.1693334,-0.07761 0.1693334,-0.148166 0,-0.01411 0,-0.03528 -0.00706,-0.04939 -0.014111,-0.03528 -0.035278,-0.0635 -0.056444,-0.105834 0,-0.0071 0.00706,-0.105833 0.042333,-0.141111 0.056445,-0.2187222 0.077611,-0.430389 0.1270001,-0.6491113 0.014111,-0.0635 0.028222,-0.1199446 0.035278,-0.1834446 0.070556,0.1270001 0.1622779,0.2328335 0.289278,0.2822224 0.098778,0.042333 0.3104446,0.070556 0.6702782,0.077611 0.042333,0 0.1058334,0.00706 0.1905001,0.00706 0.1975557,0 0.4868336,-0.028222 0.6702782,-0.2257779 C 6.2147433,9.0635521 6.2429655,8.3862183 6.2570767,7.991107 V 7.948774 c 0,-0.084667 0.00706,-0.176389 0.00706,-0.2610557 0,-0.4727225 -0.049389,-0.9525006 -0.1128889,-1.3123342 z"
         style="font-size:7.05556px;font-family:'Reprise Script';-inkscape-font-specification:'Reprise Script, Normal'"
         id="path273" />
      <path
         d="m 8.2679026,9.5433302 c 0.5150559,0 0.7831671,-0.3175002 0.7831671,-0.7267227 0,-0.1693334 -0.042333,-0.3457224 -0.070556,-0.5150559 C 8.8887919,7.7441624 8.6630139,7.236162 8.5148472,6.6787728 8.4301804,6.3753837 8.3031804,6.0649391 8.2890692,5.7403833 c 0.00706,-0.1199445 0.00706,-0.1411112 0.00706,-0.2328335 0,-0.028222 0.6491115,-0.289278 0.7267227,-0.3245558 0,0.035278 -0.021167,0.0635 -0.021167,0.112889 0,0.1481668 0.1199445,0.2681113 0.2681113,0.2681113 0.2187224,0 0.3104446,-0.3175002 0.3104446,-0.4938892 0,-0.1905001 -0.1481667,-0.4515559 -0.4515558,-0.4515559 -0.2963335,0 -0.8113894,0.2751669 -1.171223,0.465667 C 7.6399577,5.2464941 7.3083464,5.3734942 6.9979017,5.5710498 6.8074016,5.6909944 6.5322348,5.7474389 6.5322348,6.1072724 c 0,0.1411112 0.1199445,0.2610557 0.2681113,0.2610557 0.098778,0 0.1975556,-0.049389 0.239889,-0.1552223 0.0635,-0.1622779 0.352778,-0.2257779 0.5009448,-0.3316113 0.0635,-0.049389 0.1411112,-0.091722 0.2257779,-0.112889 0.056444,0.5573893 0.2540002,1.1006674 0.4303892,1.6298344 0.1340556,0.4092225 0.2328334,0.7902228 0.3175002,1.2417786 0.014111,0.0635 0.042333,0.1270001 0.042333,0.1905001 0,0.021167 -0.00706,0.049389 -0.014111,0.070556 -0.042333,0.1270001 -0.084667,0.1340557 -0.3457224,0.1340557 -0.1411112,0 -0.2963336,-0.014111 -0.4938892,-0.014111 -0.1481668,0 -0.3104447,0.00706 -0.5150559,0.035278 0.014111,-0.014111 0.014111,-0.1411112 0.014111,-0.176389 0,-0.1481667 -0.112889,-0.2610557 -0.2610557,-0.2610557 -0.2469446,0 -0.3386669,0.3175002 -0.3386669,0.5150559 0,0.2540002 0.2751668,0.4021669 0.4586114,0.4021669 0.098778,0 0.2257779,-0.021167 0.4303892,-0.021167 0.056444,0 0.127,0.00706 0.2046112,0.014111 h 0.084667 z"
         style="font-size:7.05556px;font-family:'Reprise Script';-inkscape-font-specification:'Reprise Script, Normal'"
         id="path275" />
      <path
         d="m 10.229335,7.6101067 c 0.0635,-0.4233336 0.112889,-1.1006674 0.352778,-1.524001 0.148167,0.021167 0.275167,0.4303892 0.296334,0.5573893 0.02822,0.1693334 0.0635,0.4092225 0.09172,0.6491115 z m -0.5644444,1.63689 c 0,0.1481667 0.070556,0.2963335 0.2540002,0.2963335 0.1411112,0 0.2540002,-0.1199445 0.2540002,-0.2540002 0,-0.028222 0,-0.0635 -0.0071,-0.084667 0.0071,-0.4374447 0,-0.6350004 0.02822,-1.0795007 0.268111,-0.112889 0.677333,-0.2751668 0.811389,-0.3104446 v 1.4675565 c 0,0.1552223 0.09878,0.2610557 0.254,0.2610557 0.141111,0 0.261056,-0.1058334 0.261056,-0.2610557 0.0071,-0.014111 0.02117,-0.070556 0.02117,-0.4303892 0,-0.2751668 -0.0071,-0.7267227 -0.04939,-1.4816676 -0.02822,-0.4233336 -0.04939,-0.5644448 -0.07761,-0.705556 0,-0.014111 -0.0071,-0.021167 -0.0071,-0.035278 -0.07761,-0.4586114 -0.232834,-1.0371674 -0.797278,-1.0512785 -0.282223,0 -0.465667,0.2398891 -0.6138341,0.5715004 -0.091722,0.2116668 -0.1552223,0.4586114 -0.176389,0.6279448 -0.056444,0.4162781 -0.091722,0.529167 -0.1058334,0.8960562 -0.014111,0.021167 -0.049389,0.049389 -0.098778,0.084667 -0.056444,0.035278 -0.1199445,0.077611 -0.1199445,0.1975557 0,0.098778 0.042333,0.1693334 0.176389,0.239889 z"
         style="font-size:7.05556px;font-family:'Reprise Script';-inkscape-font-specification:'Reprise Script, Normal'"
         id="path277" />
      <path
         d="m 11.87328,9.28933 c 0,0.1411112 0.112889,0.2540002 0.254001,0.2540002 0.134055,0 0.366889,-0.1622779 0.599722,-0.1622779 0.352778,0 0.839612,0.1622779 1.100668,0.1622779 0.225777,0 0.352778,-0.098778 0.352778,-0.2963335 0,-0.1411112 -0.119945,-0.2610558 -0.254001,-0.2610558 -0.0635,0 -0.105833,0.042333 -0.155222,0.042333 -0.197556,0 -0.627945,-0.1270001 -0.980723,-0.1270001 -0.07761,0 -0.148167,0.00706 -0.211667,0.021167 0.08467,-0.1411112 1.072446,-1.9191123 1.171223,-2.0955014 l 0.02822,-0.056444 c 0.119944,-0.2116668 0.345722,-0.6067782 0.345722,-0.8607784 0,-0.2187223 -0.275167,-0.3245557 -0.451556,-0.3245557 -0.4445,0 -0.797278,0.056444 -1.178278,0.1270001 -0.261056,0.042333 -0.578556,0.1622778 -0.578556,0.479778 0,0.1834446 0.105833,0.352778 0.296333,0.352778 0.134056,0 0.254,-0.1058334 0.254,-0.2328334 0,-0.028222 -0.0071,-0.056445 -0.02117,-0.084667 0.359833,-0.042333 0.705556,-0.1411112 1.121834,-0.1411112 -0.493889,0.9666118 -1.023056,1.9050013 -1.57339,2.8363352 -0.0635,0.1058334 -0.119945,0.2610557 -0.119945,0.3668891 z"
         style="font-size:7.05556px;font-family:'Reprise Script';-inkscape-font-specification:'Reprise Script, Normal'"
         id="path279" />
      <path
         d="m 14.533218,9.28933 c 0,0.1411112 0.112889,0.2540002 0.254,0.2540002 0.134056,0 0.36689,-0.1622779 0.599723,-0.1622779 0.352778,0 0.839612,0.1622779 1.100667,0.1622779 0.225778,0 0.352778,-0.098778 0.352778,-0.2963335 0,-0.1411112 -0.119944,-0.2610558 -0.254,-0.2610558 -0.0635,0 -0.105833,0.042333 -0.155222,0.042333 -0.197556,0 -0.627945,-0.1270001 -0.980723,-0.1270001 -0.07761,0 -0.148167,0.00706 -0.211667,0.021167 0.08467,-0.1411112 1.072445,-1.9191123 1.171223,-2.0955014 l 0.02822,-0.056444 C 16.558162,6.5588286 16.78394,6.1637172 16.78394,5.909717 c 0,-0.2187223 -0.275167,-0.3245557 -0.451556,-0.3245557 -0.4445,0 -0.797278,0.056444 -1.178278,0.1270001 -0.261056,0.042333 -0.578556,0.1622778 -0.578556,0.479778 0,0.1834446 0.105833,0.352778 0.296333,0.352778 0.134056,0 0.254,-0.1058334 0.254,-0.2328334 0,-0.028222 -0.0071,-0.056445 -0.02117,-0.084667 0.359833,-0.042333 0.705556,-0.1411112 1.121834,-0.1411112 -0.49389,0.9666118 -1.023057,1.9050013 -1.57339,2.8363352 -0.0635,0.1058334 -0.119945,0.2610557 -0.119945,0.3668891 z"
         style="font-size:7.05556px;font-family:'Reprise Script';-inkscape-font-specification:'Reprise Script, Normal'"
         id="path281" />
    </g>
    <rect
       style="fill:#000000;stroke-width:0.247336"
       id="rect425"
       width="16.194742"
       height="28.051607"
       x="2.3135345"
       y="94.56572"
       rx="4"
       ry="3.4954956" />
    <g
       aria-label="mel"
       id="text367"
       style="font-size:4.93889px;font-family:'Reprise Script';-inkscape-font-specification:'Reprise Script, Normal';stroke-width:0.264583"
       inkscape:label="text_mel">
      <path
         d="m 8.7822622,72.414217 c -0.5087056,0 -0.5729112,0.770466 -0.582789,0.943328 0,0.03951 -0.00494,0.158044 -0.00494,0.296333 0,0.548217 0.034572,0.93345 0.059267,1.106311 0.00494,0.03457 0.054328,0.429684 0.2617612,0.429684 0.093839,0 0.1728611,-0.08396 0.1728611,-0.172861 0,-0.05433 -0.04445,-0.138289 -0.079022,-0.202495 -0.098778,-0.261761 -0.098778,-0.632178 -0.098778,-0.849489 v -0.291394 c 0,-0.128412 0,-0.207434 0.014817,-0.286456 0.029633,-0.187678 0.029633,-0.523522 0.2420056,-0.642056 0.1629833,0.09384 0.2469445,0.518584 0.2469445,0.66675 0,0.128411 0.04445,0.938389 0.04445,1.387828 0,0.128412 0.029633,0.227189 0.1728611,0.227189 0.1432278,0 0.1728612,-0.09878 0.1728612,-0.227189 0,-0.449439 0.04445,-1.259417 0.04445,-1.387828 0,-0.113594 0.0889,-0.661811 0.2420056,-0.661811 0.1975556,0 0.2123723,0.4445 0.2370667,0.558095 l 0.024695,0.459316 c 0.00494,0.06421 0.00988,0.1778 0.00988,0.316089 0,0.22225 -0.019756,0.503767 -0.1037167,0.726017 -0.039511,0.06421 -0.083961,0.153106 -0.083961,0.207434 0,0.0889 0.079022,0.172861 0.1728612,0.172861 0.2074337,0 0.2568227,-0.395111 0.2617607,-0.429684 0,0.0049 0.05927,-0.321028 0.05927,-1.106311 0,-0.138289 -0.0049,-0.256822 -0.0049,-0.296333 -0.0099,-0.172862 -0.07408,-0.943328 -0.5827888,-0.943328 -0.2420056,0 -0.3901723,0.301272 -0.449439,0.479072 -0.059267,-0.207433 -0.2074334,-0.479072 -0.449439,-0.479072 z"
         id="path673" />
      <path
         d="m 11.58261,75.184934 c 0.153105,0 0.40005,-0.09878 0.40005,-0.316089 0,-0.09384 -0.07408,-0.167922 -0.167923,-0.167922 -0.07408,0 -0.138289,0.03951 -0.158044,0.103716 -0.01976,0.04445 -0.0889,0.04445 -0.158045,0.04445 h -0.01975 c -0.09384,0.0049 -0.207434,0.0099 -0.301272,0.0099 -0.261762,0 -0.296334,-0.09878 -0.296334,-0.3556 0,-0.03951 0.0049,-0.0889 0.0049,-0.2667 0.09878,-0.0049 0.182739,-0.05927 0.261761,-0.103717 0.03951,-0.01975 0.06914,-0.03457 0.128411,-0.04939 0.0099,-0.0049 0.03951,-0.0049 0.09384,-0.0099 0.0889,0 0.148167,-0.09384 0.148167,-0.172862 0,-0.0889 -0.07902,-0.172861 -0.167922,-0.172861 -0.13335,0 -0.246945,0.04445 -0.404989,0.118534 l -0.06915,0.03951 -0.0099,-0.123472 c -0.0049,-0.03951 -0.0049,-0.08396 -0.0049,-0.123473 0,-0.187678 0.03457,-0.385233 0.103716,-0.661811 0.01976,-0.07902 0.518584,-0.192617 0.518584,-0.202494 0,0.0049 0.0049,0.01976 0.0049,0.02963 0.01975,0.07902 0.0889,0.13335 0.172861,0.13335 0.0889,0 0.162983,-0.07902 0.162983,-0.1778 0,-0.13335 -0.128411,-0.335845 -0.281517,-0.335845 -0.153105,0 -0.296333,0.04939 -0.434622,0.108656 -0.1778,0.05927 -0.360539,0.123472 -0.439561,0.296333 -0.128411,0.276578 -0.13335,0.785284 -0.13335,1.140884 -0.01482,0.05927 -0.01976,0.09384 -0.01976,0.128411 0,0.02963 0.0049,0.05927 0.01482,0.103717 0.02963,0.103716 0.02469,0.316089 0.03951,0.395111 0.0099,0.316089 0.138289,0.592667 0.503767,0.592667 z"
         id="path675" />
      <path
         d="m 12.234534,75.017012 c 0,0.103716 0.07902,0.172861 0.172861,0.172861 0.04445,0 0.06915,-0.0099 0.09384,-0.01976 0.06421,-0.02963 0.128411,-0.03951 0.187678,-0.03951 0.07902,0 0.143228,0.01482 0.148167,0.01976 0.03951,0.01482 0.07902,0.02963 0.182739,0.03951 h 0.138289 c 0.128411,0 0.301272,-0.138289 0.301272,-0.271639 0,-0.09878 -0.07902,-0.182739 -0.1778,-0.182739 -0.07408,0 -0.123472,0.04939 -0.153106,0.0889 l -0.05927,0.0049 h -0.01976 c -0.07408,0 -0.138289,-0.01976 -0.187678,-0.03951 -0.04445,-0.0099 -0.108655,-0.02963 -0.172861,-0.02963 -0.01482,0 -0.02963,0.0049 -0.04445,0.0049 v -0.128411 c 0,-0.271639 -0.01482,-0.513644 -0.02963,-0.760589 v -0.02469 c 0,-0.01482 -0.0049,-0.02469 -0.0049,-0.03951 -0.01482,-0.246944 -0.03457,-0.484011 -0.03457,-0.706261 0,-0.09384 0.0049,-0.207433 0.01482,-0.306211 0.01482,-0.06914 0.05927,-0.123472 0.05927,-0.202494 0,-0.09878 -0.08396,-0.177801 -0.182739,-0.177801 -0.167922,0 -0.227189,0.246945 -0.232128,0.370417 0,0.05927 -0.0049,0.123472 -0.0049,0.182739 0,0.217311 0.01482,0.439561 0.02963,0.726017 v 0.03951 c 0.01975,0.31115 0.03457,0.627239 0.03457,0.869245 0,0.07902 0,0.148166 -0.0049,0.207433 -0.01482,0.0247 -0.05433,0.148167 -0.05433,0.202495 z"
         id="path677" />
    </g>
    <g
       aria-label="chord"
       id="text363"
       style="font-size:4.93889px;font-family:'Reprise Script';-inkscape-font-specification:'Reprise Script, Normal';stroke-width:0.264583"
       inkscape:label="text_chord">
      <path
         d="m 7.4700846,41.109517 c 0.098778,-0.0049 0.3309056,-0.138289 0.3309056,-0.286455 0,-0.113595 -0.054328,-0.22225 -0.1827389,-0.22225 -0.1580445,0 -0.1333501,0.158044 -0.2469445,0.158044 H 7.2280789 c -0.1629833,0 -0.3605389,-0.0049 -0.4247445,-0.04939 C 6.6502288,40.605751 6.6156566,40.062473 6.6156566,39.835284 v -0.04445 c 0.00988,-0.232128 0.039511,-0.4445 0.054328,-0.5334 0.019756,-0.13335 0.1876778,-0.563034 0.3457223,-0.572912 0.2864556,0 0.1629833,0.385234 0.4099278,0.385234 0.093839,0 0.1728612,-0.07902 0.1728612,-0.167923 0,-0.246944 -0.2765778,-0.563033 -0.5630335,-0.563033 -0.4247445,0 -0.716139,0.691445 -0.7358946,1.027289 -0.00494,0.0889 -0.014817,0.182739 -0.014817,0.558095 0,0.375355 0.074083,1.076678 0.5531556,1.175456 0.093839,0 0.2173112,0.01482 0.316089,0.01482 z"
         id="path680" />
      <path
         d="m 8.0479219,39.855039 c -0.034572,0.03457 -0.059267,0.07902 -0.059267,0.13335 0,0.04939 0.029633,0.103717 0.049389,0.13335 v 0.592667 c 0,0.03457 -0.00988,0.07408 -0.019756,0.113595 -0.00988,0.03951 -0.014817,0.07902 -0.014817,0.118533 0,0.0889 0.079022,0.167922 0.1728612,0.167922 0.1580444,0 0.1926167,-0.172861 0.2074333,-0.291394 v -0.701323 c 0.2222501,-0.108655 0.5136446,-0.162983 0.5136446,-0.192616 0,0.03951 0.00494,0.296333 0.00494,0.9779 l -0.00494,0.03457 c 0,0.0889 0.079022,0.167922 0.1728611,0.167922 0.0889,0 0.1679223,-0.07902 0.1679223,-0.167922 v -2.281767 c 0,-0.01976 0.019756,-0.05927 0.024694,-0.06421 0.014817,-0.01975 0.024694,-0.04445 0.024694,-0.0889 0,-0.09384 -0.079022,-0.167922 -0.1728612,-0.167922 -0.1382889,0 -0.2173111,0.182739 -0.2173111,0.301272 v 0.928512 c -0.1728612,0.05433 -0.3358445,0.113594 -0.5087057,0.187677 -0.00494,-0.350661 -0.00988,-0.790222 -0.019756,-1.121128 0,-0.0889 -0.079022,-0.172861 -0.1629834,-0.172861 -0.098778,0 -0.1679223,0.07902 -0.1679223,0.172861 z"
         id="path682" />
      <path
         d="m 10.324749,40.778612 c -0.13335,0 -0.2667,-0.02963 -0.321028,-0.06421 -0.054328,-0.172861 -0.083961,-0.360539 -0.1037168,-0.538339 -0.00494,-0.05433 -0.00988,-0.13335 -0.00988,-0.227189 0,-0.301272 0.029633,-0.735894 0.049389,-0.770467 0.034572,-0.143228 0.1135947,-0.484011 0.2568227,-0.484011 0.242005,0 0.375355,0.251883 0.464255,0.4445 0.05927,0.123472 0.09878,0.271639 0.118534,0.419806 0.0099,0.06421 0.01482,0.143228 0.01482,0.227189 0,0.13335 -0.0099,0.276578 -0.02963,0.375355 -0.01976,0.128412 -0.108656,0.464256 -0.172861,0.567973 -0.07902,0.03457 -0.172861,0.04939 -0.2667,0.04939 z m 0.246944,0.330905 c 0.251884,0 0.340784,-0.232128 0.409928,-0.429683 0.04445,-0.138289 0.08396,-0.291395 0.128411,-0.5334 0.01976,-0.113595 0.03457,-0.237067 0.03457,-0.360539 0,-0.2667 -0.05433,-0.548217 -0.158045,-0.785284 -0.06914,-0.148166 -0.162983,-0.306211 -0.291394,-0.429683 -0.128412,-0.123472 -0.335845,-0.22225 -0.508706,-0.22225 -0.172861,0 -0.2568224,0.06421 -0.3407836,0.182739 -0.083961,0.123472 -0.2321278,0.449439 -0.2617611,0.676628 -0.039511,0.148166 -0.049389,0.360539 -0.049389,0.558094 0,0.143228 0.00494,0.281517 0.014817,0.385234 0.024694,0.128411 0.019756,0.301272 0.069145,0.48895 0.049389,0.207433 0.1135945,0.474133 0.3704167,0.474133 z"
         id="path684" />
      <path
         d="m 11.455752,39.790834 c -0.06421,0.04939 -0.06421,0.103716 -0.06421,0.197555 0,0.05927 0.01976,0.113595 0.04939,0.167923 0.03951,0.08396 0.04445,0.167922 0.04445,0.246944 0,0.05927 -0.0049,0.118533 -0.0049,0.1778 0,0.02963 0,0.06421 0.0049,0.09384 -0.01975,0.108656 -0.03951,0.182739 -0.03951,0.2667 0,0.0889 0.08396,0.172861 0.1778,0.172861 0.192617,0 0.207433,-0.251883 0.212372,-0.385233 0.1778,0.148166 0.380295,0.385233 0.706262,0.385233 0.07902,0 0.242005,-0.103717 0.242005,-0.217311 0,-0.09878 -0.07902,-0.182739 -0.172861,-0.182739 -0.04445,0 -0.06914,0.03457 -0.103717,0.03457 -0.138289,0 -0.6223,-0.330905 -0.676628,-0.572911 0.0099,0 0.01976,0 0.02963,0.0049 0.02469,0.0049 0.04939,0.0099 0.07408,0.0099 0.474134,0 0.898878,-0.4445 0.898878,-0.943328 0,-0.469195 -0.276578,-0.908756 -0.814917,-0.908756 -0.409928,0 -0.567972,0.301272 -0.567972,0.775406 z m 0.321028,-0.755651 c 0,-0.242005 0.08396,-0.345722 0.291394,-0.345722 0.296334,0 0.419806,0.301272 0.419806,0.553156 0,0.335844 -0.291395,0.57785 -0.607484,0.602544 -0.06914,0 -0.08396,-0.0049 -0.08396,-0.22225 z"
         id="path686" />
      <path
         d="m 13.614038,40.437828 c 0,-0.212372 -0.01975,-0.434622 -0.02469,-0.548217 0,-0.06914 -0.01976,-0.237066 -0.04445,-0.419805 0,-0.0099 -0.0049,-0.0247 -0.0049,-0.03457 -0.02469,-0.192617 -0.04939,-0.395112 -0.05433,-0.513645 0.0049,-0.167922 0.03951,-0.202494 0.167922,-0.212372 h 0.01976 c 0.232128,0 0.459317,0.237066 0.553156,0.449439 0.128411,0.291394 0.261761,0.587728 0.261761,0.918633 v 0.06421 c 0,0.207433 -0.03457,0.523522 -0.246945,0.582789 -0.05433,0.01976 -0.172861,0.01976 -0.251883,0.01976 h -0.06914 c -0.108656,0 -0.167923,0.0049 -0.335845,0.03457 0.02469,-0.08396 0.02963,-0.207434 0.02963,-0.340784 z m 0.538339,0.66675 c 0.567973,0 0.701323,-0.592666 0.701323,-1.027289 0,-0.256822 -0.08396,-0.558094 -0.182739,-0.790222 -0.172861,-0.424745 -0.484011,-0.938389 -1.017412,-0.938389 -0.370416,0 -0.528461,0.227189 -0.528461,0.553155 0,0.07902 0.03457,0.409928 0.06915,0.735895 0,0.01976 0.0049,0.03951 0.0049,0.05927 0.02963,0.301272 0.05433,0.582789 0.05433,0.646994 0,0.123473 -0.0099,0.246945 -0.03951,0.360539 -0.0099,-0.0049 -0.02469,-0.0049 -0.03457,-0.0049 -0.09384,0 -0.1778,0.08396 -0.1778,0.182739 0,0.1778 0.227189,0.232128 0.3556,0.232128 z"
         id="path688" />
    </g>
    <g
       aria-label="root"
       id="text359"
       style="font-size:4.93889px;font-family:'Reprise Script';-inkscape-font-specification:'Reprise Script, Normal';stroke-width:0.264583"
       inkscape:label="text_root">
      <path
         d="m 7.0457987,25.183593 c -0.064205,0.04939 -0.064205,0.103717 -0.064205,0.197556 0,0.05927 0.019756,0.113594 0.049389,0.167922 0.039511,0.08396 0.04445,0.167922 0.04445,0.246944 0,0.05927 -0.00494,0.118534 -0.00494,0.1778 0,0.02963 0,0.06421 0.00494,0.09384 -0.019756,0.108656 -0.039511,0.182739 -0.039511,0.2667 0,0.0889 0.083961,0.172861 0.1778001,0.172861 0.1926167,0 0.2074334,-0.251883 0.2123723,-0.385233 0.1778,0.148167 0.3802945,0.385233 0.7062612,0.385233 0.079022,0 0.2420056,-0.103716 0.2420056,-0.217311 0,-0.09878 -0.079022,-0.182739 -0.1728611,-0.182739 -0.04445,0 -0.069145,0.03457 -0.1037167,0.03457 -0.1382889,0 -0.6223001,-0.330906 -0.6766279,-0.572912 0.00988,0 0.019756,0 0.029633,0.0049 0.024694,0.0049 0.049389,0.0099 0.074083,0.0099 0.4741334,0 0.8988779,-0.4445 0.8988779,-0.943328 0,-0.469194 -0.2765778,-0.908756 -0.8149168,-0.908756 -0.4099279,0 -0.5679724,0.301273 -0.5679724,0.775406 z m 0.3210279,-0.75565 c 0,-0.242006 0.083961,-0.345722 0.2913945,-0.345722 0.2963334,0 0.4198056,0.301272 0.4198056,0.553155 0,0.335845 -0.2913945,0.57785 -0.6074834,0.602545 -0.069145,0 -0.083961,-0.0049 -0.083961,-0.22225 z"
         id="path691" />
      <path
         d="m 9.3917576,26.171371 c -0.13335,0 -0.2667,-0.02963 -0.3210278,-0.06421 -0.054328,-0.172861 -0.083961,-0.360539 -0.1037167,-0.538339 -0.00494,-0.05433 -0.00988,-0.13335 -0.00988,-0.227189 0,-0.301272 0.029633,-0.735894 0.049389,-0.770466 0.034572,-0.143228 0.1135945,-0.484012 0.2568223,-0.484012 0.2420056,0 0.3753556,0.251884 0.4642556,0.444501 0.059267,0.123472 0.098778,0.271638 0.1185334,0.419805 0.00988,0.06421 0.014817,0.143228 0.014817,0.227189 0,0.13335 -0.00988,0.276578 -0.029633,0.375356 -0.019756,0.128411 -0.1086556,0.464255 -0.1728611,0.567972 -0.079022,0.03457 -0.1728612,0.04939 -0.2667001,0.04939 z m 0.2469445,0.330906 c 0.2518834,0 0.3407834,-0.232128 0.4099279,-0.429684 0.04445,-0.138289 0.08396,-0.291394 0.128411,-0.5334 0.01976,-0.113594 0.03457,-0.237067 0.03457,-0.360539 0,-0.2667 -0.05433,-0.548217 -0.158044,-0.785283 -0.069145,-0.148167 -0.1629835,-0.306212 -0.2913946,-0.429684 -0.1284112,-0.123472 -0.3358446,-0.22225 -0.5087057,-0.22225 -0.1728611,0 -0.2568223,0.06421 -0.3407834,0.182739 -0.083961,0.123472 -0.2321278,0.449439 -0.2617612,0.676628 -0.039511,0.148167 -0.049389,0.360539 -0.049389,0.558095 0,0.143227 0.00494,0.281516 0.014817,0.385233 0.024694,0.128411 0.019756,0.301272 0.069145,0.48895 0.049389,0.207433 0.1135944,0.474133 0.3704167,0.474133 z"
         id="path693" />
      <path
         d="m 11.248778,26.171371 c -0.13335,0 -0.2667,-0.02963 -0.321028,-0.06421 -0.05433,-0.172861 -0.08396,-0.360539 -0.103717,-0.538339 -0.0049,-0.05433 -0.0099,-0.13335 -0.0099,-0.227189 0,-0.301272 0.02963,-0.735894 0.04939,-0.770466 0.03457,-0.143228 0.113595,-0.484012 0.256823,-0.484012 0.242005,0 0.375355,0.251884 0.464255,0.444501 0.05927,0.123472 0.09878,0.271638 0.118534,0.419805 0.0099,0.06421 0.01482,0.143228 0.01482,0.227189 0,0.13335 -0.0099,0.276578 -0.02963,0.375356 -0.01976,0.128411 -0.108656,0.464255 -0.172861,0.567972 -0.07902,0.03457 -0.172861,0.04939 -0.2667,0.04939 z m 0.246944,0.330906 c 0.251884,0 0.340784,-0.232128 0.409928,-0.429684 0.04445,-0.138289 0.08396,-0.291394 0.128411,-0.5334 0.01976,-0.113594 0.03457,-0.237067 0.03457,-0.360539 0,-0.2667 -0.05433,-0.548217 -0.158044,-0.785283 -0.06915,-0.148167 -0.162983,-0.306212 -0.291395,-0.429684 -0.128411,-0.123472 -0.335844,-0.22225 -0.508705,-0.22225 -0.172861,0 -0.256823,0.06421 -0.340784,0.182739 -0.08396,0.123472 -0.232128,0.449439 -0.261761,0.676628 -0.03951,0.148167 -0.04939,0.360539 -0.04939,0.558095 0,0.143227 0.0049,0.281516 0.01482,0.385233 0.02469,0.128411 0.01975,0.301272 0.06914,0.48895 0.04939,0.207433 0.113595,0.474133 0.370417,0.474133 z"
         id="path695" />
      <path
         d="m 13.081103,26.349171 c 0,0.0889 0.07408,0.158044 0.162983,0.158044 0.192617,0 0.192617,-0.276577 0.192617,-0.370416 0,-0.04445 0,-0.153106 -0.05927,-1.570567 0,-0.128411 0,-0.281517 0.01976,-0.414867 l 0.3556,-0.05433 c 0,0.01976 -0.0049,0.0247 -0.0049,0.05433 0,0.0889 0.06915,0.158044 0.158045,0.158044 0.148166,0 0.187678,-0.162983 0.187678,-0.281516 0,-0.153106 -0.103717,-0.2667 -0.256823,-0.2667 -0.02963,0 -0.05433,0 -1.051983,0.182739 l -0.286456,0.05433 c -0.103717,0.03951 -0.1778,0.118534 -0.1778,0.232128 0,0.09384 0.06421,0.1778 0.167922,0.1778 0.08396,0 0.13335,-0.108655 0.167923,-0.108655 l 0.404989,-0.08396 c 0,0.01482 -0.0049,0.09878 -0.0049,0.375355 l 0.05927,1.447095 -0.01482,0.217311 c -0.0049,0.03457 -0.01976,0.05927 -0.01976,0.09384 z"
         id="path697" />
    </g>
    <g
       aria-label="1"
       id="text552"
       style="font-size:4.9389px;font-family:'Reprise Script';-inkscape-font-specification:'Reprise Script, Normal';fill:#0000ff;stroke-width:0.264583"
       inkscape:label="text_1"
       transform="translate(0,-2.8858083)">
      <path
         d="m 6.6631323,101.363 c 0,-0.0889 -0.00494,-0.27164 -0.1679226,-0.27164 -0.1333503,0 -0.3753564,0.31609 -0.444501,0.36548 l -0.083961,0.0691 c -0.1432281,0.11854 -0.1432281,0.13829 -0.1432281,0.24201 0,0.084 0.1234725,0.19262 0.197556,0.19262 0.069145,0 0.1827393,-0.10866 0.296334,-0.22719 -0.00494,0.56797 -0.019756,2.29658 -0.034572,2.44969 -0.034572,0.005 -0.069145,0.005 -0.1037169,0.005 -0.093839,0 -0.1778004,-0.01 -0.2024949,-0.01 -0.098778,0 -0.1827393,0.10372 -0.1827393,0.18768 0,0.13829 0.1284114,0.18768 0.2173116,0.18768 0.1185336,0 0.2123727,-0.0247 0.3309063,-0.0247 0.069145,0 0.1679226,0.01 0.2518839,0.0148 l 0.2024949,0.01 c 0.1580448,0 0.3605397,-0.0296 0.3605397,-0.22719 0,-0.10372 -0.1284114,-0.14817 -0.2271894,-0.14817 -0.1135947,0 -0.1629837,0.0346 -0.2321283,0.0346 h -0.024694 z"
         style="fill:#ffffff"
         id="path670" />
    </g>
    <g
       aria-label="2"
       id="text658"
       style="font-size:4.9389px;font-family:'Reprise Script';-inkscape-font-specification:'Reprise Script, Normal';fill:#ffffff;stroke-width:0.264583"
       inkscape:label="text_2"
       transform="translate(0,-3.1750001)">
      <path
         d="m 5.5687281,113.04858 c 0.00988,0.13335 0.1580448,0.23706 0.3506619,0.23706 0.1382892,0 0.4247454,-0.10865 0.7062627,-0.10865 0.197556,0 0.4247454,0.0889 0.6469959,0.0889 0.098778,0 0.2420061,-0.0494 0.246945,-0.15805 v -0.0198 c 0,-0.13335 -0.0889,-0.21238 -0.2024949,-0.21238 -0.2667006,0 -0.4840122,-0.084 -0.7161405,-0.084 -0.246945,0 -0.3753564,0.084 -0.6074847,0.084 0.1135947,-0.2667 0.6667515,-0.8643 0.8346741,-1.03223 0.3062118,-0.30621 0.4741344,-0.70626 0.4741344,-1.09149 0,-0.53834 -0.4148676,-0.92358 -0.9433299,-0.92358 -0.3605397,0 -0.7803462,0.25683 -0.7852851,0.62724 0,0.12841 0.093839,0.19756 0.197556,0.19756 0.2518839,0 0.2074338,-0.43462 0.5630346,-0.43462 0.4346232,0 0.5877291,0.23706 0.5877291,0.53834 0,0.37041 -0.2321283,0.65193 -0.5531568,0.97296 -0.3012729,0.30127 -0.7507128,0.889 -0.8001018,1.27917 z"
         id="path667" />
    </g>
    <g
       aria-label="3"
       id="text662"
       style="font-size:4.9389px;font-family:'Reprise Script';-inkscape-font-specification:'Reprise Script, Normal';fill:#ffffff;stroke-width:0.264583"
       inkscape:label="text_3"
       transform="translate(0,-3.1750001)">
      <path
         d="m 5.432903,120.82865 c 0.059267,0.4445 0.6716904,0.78529 1.1310081,0.78529 0.5778513,0 0.9038187,-0.63218 0.9038187,-1.12607 0,-0.33091 -0.1037169,-0.79023 -0.5482179,-0.87913 0.2370672,-0.20249 0.3259674,-0.35066 0.345723,-0.52352 0.00494,-0.0445 0.00494,-0.084 0.00494,-0.12347 0,-0.24695 -0.083961,-0.46426 -0.345723,-0.65688 -0.1629837,-0.11853 -0.3753564,-0.1531 -0.5679735,-0.1531 -0.2716395,0 -0.8840631,0.1531 -0.8840631,0.38029 0,0.12348 0.1037169,0.2025 0.1876782,0.2025 0.098778,0 0.3259674,-0.19756 0.6963849,-0.19756 0.2518839,0 0.5037678,0.14323 0.5284623,0.39018 v 0.0444 c 0,0.36054 -0.4593177,0.55809 -0.7951629,0.57291 -0.093839,0 -0.2074338,0.0889 -0.2074338,0.19262 0,0.12841 0.093839,0.22225 0.2024949,0.22225 0.1135947,0 0.2716395,-0.084 0.444501,-0.084 0.2716395,0 0.5630346,0.12842 0.5630346,0.63218 0,0.32597 -0.2024949,0.72602 -0.5778513,0.72602 -0.2765784,0 -0.7309572,-0.19262 -0.7309572,-0.46919 0,-0.0691 -0.1382892,-0.11854 -0.1827393,-0.11854 -0.1086558,0 -0.1679226,0.0741 -0.1679226,0.18274 z"
         id="path664" />
    </g>
  </g>
  <g
     inkscape:groupmode="layer"
     id="layer2"
     inkscape:label="components"
     style="display:inline">
    <circle
       style="fill:#0000ff;stroke-width:0.264583"
       id="circle349"
       cx="13.490524"
       cy="116.71368"
       r="2.1689386"
       inkscape:label="out3" />
    <circle
       style="fill:#0000ff;stroke-width:0.264583"
       id="circle347"
       cx="13.490524"
       cy="108.5362"
       r="2.1689386"
       inkscape:label="out2" />
    <circle
       style="fill:#0000ff;stroke-width:0.264583"
       id="circle345"
       cx="13.490524"
       cy="100.35875"
       r="2.1689386"
       inkscape:label="out1" />
    <circle
       style="fill:#00ff00;stroke-width:0.264583"
       id="circle354"
       cx="10.506285"
       cy="68.393867"
       r="2.1689386"
       inkscape:label="mel" />
    <circle
       style="fill:#00ff00;stroke-width:0.264583"
       id="path337"
       cx="10.555501"
       cy="33.83239"
       r="2.1689386"
       inkscape:label="chord" />
    <circle
       style="fill:#00ff00;stroke-width:0.264583"
       id="circle339"
       cx="10.506285"
       cy="19.372799"
       r="2.1689386"
       inkscape:label="root" />
  </g>
</svg>
