<?xml version="1.0" encoding="UTF-8" standalone="no"?>
<!-- Created with Inkscape (http://www.inkscape.org/) -->

<svg
   width="60.959999mm"
   height="128.5mm"
   viewBox="0 0 60.959997 128.5"
   version="1.1"
   id="svg5"
   inkscape:version="1.2.2 (b0a8486, 2022-12-01)"
   sodipodi:docname="NestlingAudio-Jazz.svg"
   xmlns:inkscape="http://www.inkscape.org/namespaces/inkscape"
   xmlns:sodipodi="http://sodipodi.sourceforge.net/DTD/sodipodi-0.dtd"
   xmlns="http://www.w3.org/2000/svg"
   xmlns:svg="http://www.w3.org/2000/svg">
  <sodipodi:namedview
     id="namedview7"
     pagecolor="#ffffff"
     bordercolor="#000000"
     borderopacity="0.25"
     inkscape:showpageshadow="2"
     inkscape:pageopacity="0.0"
     inkscape:pagecheckerboard="0"
     inkscape:deskcolor="#d1d1d1"
     inkscape:document-units="mm"
     showgrid="false"
     inkscape:zoom="2"
     inkscape:cx="126.25"
     inkscape:cy="246.75"
     inkscape:window-width="1452"
     inkscape:window-height="1205"
     inkscape:window-x="0"
     inkscape:window-y="25"
     inkscape:window-maximized="0"
     inkscape:current-layer="layer2"
     showguides="true" />
  <defs
     id="defs2" />
  <g
     inkscape:label="Layer 1"
     inkscape:groupmode="layer"
     id="layer1">
    <rect
       style="fill:#bacdf8;fill-opacity:1;stroke-width:0.458271"
       id="rect1034"
       width="60.959999"
       height="128.5"
       x="-7.9330327e-08"
       y="2.2787507e-08"
       inkscape:label="rect_bg" />
    <g
       aria-label="µJazz"
       id="text113"
       style="font-size:3.175px;stroke-width:0.264583"
       inkscape:label="text_µjazz"
       transform="translate(18.793689)">
      <path
         d="m 8.2679026,9.5433302 c 0.5150559,0 0.7831671,-0.3175002 0.7831671,-0.7267227 0,-0.1693334 -0.042333,-0.3457224 -0.070556,-0.5150559 C 8.8887919,7.7441624 8.6630139,7.236162 8.5148472,6.6787728 8.4301804,6.3753837 8.3031804,6.0649391 8.2890692,5.7403833 c 0.00706,-0.1199445 0.00706,-0.1411112 0.00706,-0.2328335 0,-0.028222 0.6491115,-0.289278 0.7267227,-0.3245558 0,0.035278 -0.021167,0.0635 -0.021167,0.112889 0,0.1481668 0.1199445,0.2681113 0.2681113,0.2681113 0.2187224,0 0.3104446,-0.3175002 0.3104446,-0.4938892 0,-0.1905001 -0.1481667,-0.4515559 -0.4515558,-0.4515559 -0.2963335,0 -0.8113894,0.2751669 -1.171223,0.465667 C 7.6399577,5.2464941 7.3083464,5.3734942 6.9979017,5.5710498 6.8074016,5.6909944 6.5322348,5.7474389 6.5322348,6.1072724 c 0,0.1411112 0.1199445,0.2610557 0.2681113,0.2610557 0.098778,0 0.1975556,-0.049389 0.239889,-0.1552223 0.0635,-0.1622779 0.352778,-0.2257779 0.5009448,-0.3316113 0.0635,-0.049389 0.1411112,-0.091722 0.2257779,-0.112889 0.056444,0.5573893 0.2540002,1.1006674 0.4303892,1.6298344 0.1340556,0.4092225 0.2328334,0.7902228 0.3175002,1.2417786 0.014111,0.0635 0.042333,0.1270001 0.042333,0.1905001 0,0.021167 -0.00706,0.049389 -0.014111,0.070556 -0.042333,0.1270001 -0.084667,0.1340557 -0.3457224,0.1340557 -0.1411112,0 -0.2963336,-0.014111 -0.4938892,-0.014111 -0.1481668,0 -0.3104447,0.00706 -0.5150559,0.035278 0.014111,-0.014111 0.014111,-0.1411112 0.014111,-0.176389 0,-0.1481667 -0.112889,-0.2610557 -0.2610557,-0.2610557 -0.2469446,0 -0.3386669,0.3175002 -0.3386669,0.5150559 0,0.2540002 0.2751668,0.4021669 0.4586114,0.4021669 0.098778,0 0.2257779,-0.021167 0.4303892,-0.021167 0.056444,0 0.127,0.00706 0.2046112,0.014111 h 0.084667 z"
         style="font-size:7.05556px;font-family:'Reprise Script';-inkscape-font-specification:'Reprise Script, Normal'"
         id="path275" />
      <path
         d="m 10.229335,7.6101067 c 0.0635,-0.4233336 0.112889,-1.1006674 0.352778,-1.524001 0.148167,0.021167 0.275167,0.4303892 0.296334,0.5573893 0.02822,0.1693334 0.0635,0.4092225 0.09172,0.6491115 z m -0.5644444,1.63689 c 0,0.1481667 0.070556,0.2963335 0.2540002,0.2963335 0.1411112,0 0.2540002,-0.1199445 0.2540002,-0.2540002 0,-0.028222 0,-0.0635 -0.0071,-0.084667 0.0071,-0.4374447 0,-0.6350004 0.02822,-1.0795007 0.268111,-0.112889 0.677333,-0.2751668 0.811389,-0.3104446 v 1.4675565 c 0,0.1552223 0.09878,0.2610557 0.254,0.2610557 0.141111,0 0.261056,-0.1058334 0.261056,-0.2610557 0.0071,-0.014111 0.02117,-0.070556 0.02117,-0.4303892 0,-0.2751668 -0.0071,-0.7267227 -0.04939,-1.4816676 -0.02822,-0.4233336 -0.04939,-0.5644448 -0.07761,-0.705556 0,-0.014111 -0.0071,-0.021167 -0.0071,-0.035278 -0.07761,-0.4586114 -0.232834,-1.0371674 -0.797278,-1.0512785 -0.282223,0 -0.465667,0.2398891 -0.6138341,0.5715004 -0.091722,0.2116668 -0.1552223,0.4586114 -0.176389,0.6279448 -0.056444,0.4162781 -0.091722,0.529167 -0.1058334,0.8960562 -0.014111,0.021167 -0.049389,0.049389 -0.098778,0.084667 -0.056444,0.035278 -0.1199445,0.077611 -0.1199445,0.1975557 0,0.098778 0.042333,0.1693334 0.176389,0.239889 z"
         style="font-size:7.05556px;font-family:'Reprise Script';-inkscape-font-specification:'Reprise Script, Normal'"
         id="path277" />
      <path
         d="m 11.87328,9.28933 c 0,0.1411112 0.112889,0.2540002 0.254001,0.2540002 0.134055,0 0.366889,-0.1622779 0.599722,-0.1622779 0.352778,0 0.839612,0.1622779 1.100668,0.1622779 0.225777,0 0.352778,-0.098778 0.352778,-0.2963335 0,-0.1411112 -0.119945,-0.2610558 -0.254001,-0.2610558 -0.0635,0 -0.105833,0.042333 -0.155222,0.042333 -0.197556,0 -0.627945,-0.1270001 -0.980723,-0.1270001 -0.07761,0 -0.148167,0.00706 -0.211667,0.021167 0.08467,-0.1411112 1.072446,-1.9191123 1.171223,-2.0955014 l 0.02822,-0.056444 c 0.119944,-0.2116668 0.345722,-0.6067782 0.345722,-0.8607784 0,-0.2187223 -0.275167,-0.3245557 -0.451556,-0.3245557 -0.4445,0 -0.797278,0.056444 -1.178278,0.1270001 -0.261056,0.042333 -0.578556,0.1622778 -0.578556,0.479778 0,0.1834446 0.105833,0.352778 0.296333,0.352778 0.134056,0 0.254,-0.1058334 0.254,-0.2328334 0,-0.028222 -0.0071,-0.056445 -0.02117,-0.084667 0.359833,-0.042333 0.705556,-0.1411112 1.121834,-0.1411112 -0.493889,0.9666118 -1.023056,1.9050013 -1.57339,2.8363352 -0.0635,0.1058334 -0.119945,0.2610557 -0.119945,0.3668891 z"
         style="font-size:7.05556px;font-family:'Reprise Script';-inkscape-font-specification:'Reprise Script, Normal'"
         id="path279" />
      <path
         d="m 14.533218,9.28933 c 0,0.1411112 0.112889,0.2540002 0.254,0.2540002 0.134056,0 0.36689,-0.1622779 0.599723,-0.1622779 0.352778,0 0.839612,0.1622779 1.100667,0.1622779 0.225778,0 0.352778,-0.098778 0.352778,-0.2963335 0,-0.1411112 -0.119944,-0.2610558 -0.254,-0.2610558 -0.0635,0 -0.105833,0.042333 -0.155222,0.042333 -0.197556,0 -0.627945,-0.1270001 -0.980723,-0.1270001 -0.07761,0 -0.148167,0.00706 -0.211667,0.021167 0.08467,-0.1411112 1.072445,-1.9191123 1.171223,-2.0955014 l 0.02822,-0.056444 C 16.558162,6.5588286 16.78394,6.1637172 16.78394,5.909717 c 0,-0.2187223 -0.275167,-0.3245557 -0.451556,-0.3245557 -0.4445,0 -0.797278,0.056444 -1.178278,0.1270001 -0.261056,0.042333 -0.578556,0.1622778 -0.578556,0.479778 0,0.1834446 0.105833,0.352778 0.296333,0.352778 0.134056,0 0.254,-0.1058334 0.254,-0.2328334 0,-0.028222 -0.0071,-0.056445 -0.02117,-0.084667 0.359833,-0.042333 0.705556,-0.1411112 1.121834,-0.1411112 -0.49389,0.9666118 -1.023057,1.9050013 -1.57339,2.8363352 -0.0635,0.1058334 -0.119945,0.2610557 -0.119945,0.3668891 z"
         style="font-size:7.05556px;font-family:'Reprise Script';-inkscape-font-specification:'Reprise Script, Normal'"
         id="path281" />
    </g>
    <rect
       style="fill:#000000;stroke-width:0.247336"
       id="rect425"
       width="53.500488"
       height="30.016039"
       x="3.7297554"
       y="92.601288"
       rx="4"
       ry="3.7402823"
       inkscape:label="rect_outputs" />
    <g
       aria-label="mel"
       id="text367"
       style="font-size:4.93889px;font-family:'Reprise Script';-inkscape-font-specification:'Reprise Script, Normal';stroke-width:0.264583"
       inkscape:label="text_mel"
       transform="translate(8.9498451,-0.73375429)">
      <path
         d="m 8.7822622,72.414217 c -0.5087056,0 -0.5729112,0.770466 -0.582789,0.943328 0,0.03951 -0.00494,0.158044 -0.00494,0.296333 0,0.548217 0.034572,0.93345 0.059267,1.106311 0.00494,0.03457 0.054328,0.429684 0.2617612,0.429684 0.093839,0 0.1728611,-0.08396 0.1728611,-0.172861 0,-0.05433 -0.04445,-0.138289 -0.079022,-0.202495 -0.098778,-0.261761 -0.098778,-0.632178 -0.098778,-0.849489 v -0.291394 c 0,-0.128412 0,-0.207434 0.014817,-0.286456 0.029633,-0.187678 0.029633,-0.523522 0.2420056,-0.642056 0.1629833,0.09384 0.2469445,0.518584 0.2469445,0.66675 0,0.128411 0.04445,0.938389 0.04445,1.387828 0,0.128412 0.029633,0.227189 0.1728611,0.227189 0.1432278,0 0.1728612,-0.09878 0.1728612,-0.227189 0,-0.449439 0.04445,-1.259417 0.04445,-1.387828 0,-0.113594 0.0889,-0.661811 0.2420056,-0.661811 0.1975556,0 0.2123723,0.4445 0.2370667,0.558095 l 0.024695,0.459316 c 0.00494,0.06421 0.00988,0.1778 0.00988,0.316089 0,0.22225 -0.019756,0.503767 -0.1037167,0.726017 -0.039511,0.06421 -0.083961,0.153106 -0.083961,0.207434 0,0.0889 0.079022,0.172861 0.1728612,0.172861 0.2074333,0 0.2568223,-0.395111 0.2617603,-0.429684 0,0.0049 0.05927,-0.321028 0.05927,-1.106311 0,-0.138289 -0.0049,-0.256822 -0.0049,-0.296333 -0.0099,-0.172862 -0.07408,-0.943328 -0.5827884,-0.943328 -0.2420056,0 -0.3901723,0.301272 -0.449439,0.479072 -0.059267,-0.207433 -0.2074334,-0.479072 -0.449439,-0.479072 z"
         id="path673" />
      <path
         d="m 11.58261,75.184934 c 0.153105,0 0.40005,-0.09878 0.40005,-0.316089 0,-0.09384 -0.07408,-0.167922 -0.167923,-0.167922 -0.07408,0 -0.138289,0.03951 -0.158044,0.103716 -0.01976,0.04445 -0.0889,0.04445 -0.158045,0.04445 h -0.01975 c -0.09384,0.0049 -0.207434,0.0099 -0.301272,0.0099 -0.261762,0 -0.296334,-0.09878 -0.296334,-0.3556 0,-0.03951 0.0049,-0.0889 0.0049,-0.2667 0.09878,-0.0049 0.182739,-0.05927 0.261761,-0.103717 0.03951,-0.01975 0.06914,-0.03457 0.128411,-0.04939 0.0099,-0.0049 0.03951,-0.0049 0.09384,-0.0099 0.0889,0 0.148167,-0.09384 0.148167,-0.172862 0,-0.0889 -0.07902,-0.172861 -0.167922,-0.172861 -0.13335,0 -0.246945,0.04445 -0.404989,0.118534 l -0.06915,0.03951 -0.0099,-0.123472 c -0.0049,-0.03951 -0.0049,-0.08396 -0.0049,-0.123473 0,-0.187678 0.03457,-0.385233 0.103716,-0.661811 0.01976,-0.07902 0.518584,-0.192617 0.518584,-0.202494 0,0.0049 0.0049,0.01976 0.0049,0.02963 0.01975,0.07902 0.0889,0.13335 0.172861,0.13335 0.0889,0 0.162983,-0.07902 0.162983,-0.1778 0,-0.13335 -0.128411,-0.335845 -0.281517,-0.335845 -0.153105,0 -0.296333,0.04939 -0.434622,0.108656 -0.1778,0.05927 -0.360539,0.123472 -0.439561,0.296333 -0.128411,0.276578 -0.13335,0.785284 -0.13335,1.140884 -0.01482,0.05927 -0.01976,0.09384 -0.01976,0.128411 0,0.02963 0.0049,0.05927 0.01482,0.103717 0.02963,0.103716 0.02469,0.316089 0.03951,0.395111 0.0099,0.316089 0.138289,0.592667 0.503767,0.592667 z"
         id="path675" />
      <path
         d="m 12.234534,75.017012 c 0,0.103716 0.07902,0.172861 0.172861,0.172861 0.04445,0 0.06915,-0.0099 0.09384,-0.01976 0.06421,-0.02963 0.128411,-0.03951 0.187678,-0.03951 0.07902,0 0.143228,0.01482 0.148167,0.01976 0.03951,0.01482 0.07902,0.02963 0.182739,0.03951 h 0.138289 c 0.128411,0 0.301272,-0.138289 0.301272,-0.271639 0,-0.09878 -0.07902,-0.182739 -0.1778,-0.182739 -0.07408,0 -0.123472,0.04939 -0.153106,0.0889 l -0.05927,0.0049 h -0.01976 c -0.07408,0 -0.138289,-0.01976 -0.187678,-0.03951 -0.04445,-0.0099 -0.108655,-0.02963 -0.172861,-0.02963 -0.01482,0 -0.02963,0.0049 -0.04445,0.0049 v -0.128411 c 0,-0.271639 -0.01482,-0.513644 -0.02963,-0.760589 v -0.02469 c 0,-0.01482 -0.0049,-0.02469 -0.0049,-0.03951 -0.01482,-0.246944 -0.03457,-0.484011 -0.03457,-0.706261 0,-0.09384 0.0049,-0.207433 0.01482,-0.306211 0.01482,-0.06914 0.05927,-0.123472 0.05927,-0.202494 0,-0.09878 -0.08396,-0.177801 -0.182739,-0.177801 -0.167922,0 -0.227189,0.246945 -0.232128,0.370417 0,0.05927 -0.0049,0.123472 -0.0049,0.182739 0,0.217311 0.01482,0.439561 0.02963,0.726017 v 0.03951 c 0.01975,0.31115 0.03457,0.627239 0.03457,0.869245 0,0.07902 0,0.148166 -0.0049,0.207433 -0.01482,0.0247 -0.05433,0.148167 -0.05433,0.202495 z"
         id="path677" />
    </g>
    <g
       aria-label="chord"
       id="text363"
       style="font-size:4.93889px;font-family:'Reprise Script';-inkscape-font-specification:'Reprise Script, Normal';stroke-width:0.264583"
       inkscape:label="text_chord"
       transform="translate(10.043305,1.0448291)">
      <path
         d="m 7.4700846,41.109517 c 0.098778,-0.0049 0.3309056,-0.138289 0.3309056,-0.286455 0,-0.113595 -0.054328,-0.22225 -0.1827389,-0.22225 -0.1580445,0 -0.1333501,0.158044 -0.2469445,0.158044 H 7.2280789 c -0.1629833,0 -0.3605389,-0.0049 -0.4247445,-0.04939 C 6.6502288,40.605751 6.6156566,40.062473 6.6156566,39.835284 v -0.04445 c 0.00988,-0.232128 0.039511,-0.4445 0.054328,-0.5334 0.019756,-0.13335 0.1876778,-0.563034 0.3457223,-0.572912 0.2864556,0 0.1629833,0.385234 0.4099278,0.385234 0.093839,0 0.1728612,-0.07902 0.1728612,-0.167923 0,-0.246944 -0.2765778,-0.563033 -0.5630335,-0.563033 -0.4247445,0 -0.716139,0.691445 -0.7358946,1.027289 -0.00494,0.0889 -0.014817,0.182739 -0.014817,0.558095 0,0.375355 0.074083,1.076678 0.5531556,1.175456 0.093839,0 0.2173112,0.01482 0.316089,0.01482 z"
         id="path680" />
      <path
         d="m 8.0479219,39.855039 c -0.034572,0.03457 -0.059267,0.07902 -0.059267,0.13335 0,0.04939 0.029633,0.103717 0.049389,0.13335 v 0.592667 c 0,0.03457 -0.00988,0.07408 -0.019756,0.113595 -0.00988,0.03951 -0.014817,0.07902 -0.014817,0.118533 0,0.0889 0.079022,0.167922 0.1728612,0.167922 0.1580444,0 0.1926167,-0.172861 0.2074333,-0.291394 V 40.121739 C 8.6060155,40.013084 8.89741,39.958756 8.89741,39.929123 c 0,0.03951 0.00494,0.296333 0.00494,0.9779 l -0.00494,0.03457 c 0,0.0889 0.079022,0.167922 0.1728611,0.167922 0.0889,0 0.1679223,-0.07902 0.1679223,-0.167922 v -2.281767 c 0,-0.01976 0.019756,-0.05927 0.024694,-0.06421 0.014817,-0.01975 0.024694,-0.04445 0.024694,-0.0889 0,-0.09384 -0.079022,-0.167922 -0.1728612,-0.167922 -0.1382889,0 -0.2173111,0.182739 -0.2173111,0.301272 v 0.928512 c -0.1728612,0.05433 -0.3358445,0.113594 -0.5087057,0.187677 -0.00494,-0.350661 -0.00988,-0.790222 -0.019756,-1.121128 0,-0.0889 -0.079022,-0.172861 -0.1629834,-0.172861 -0.098778,0 -0.1679223,0.07902 -0.1679223,0.172861 z"
         id="path682" />
      <path
         d="m 10.324749,40.778612 c -0.13335,0 -0.2667,-0.02963 -0.321028,-0.06421 -0.054328,-0.172861 -0.083961,-0.360539 -0.1037168,-0.538339 -0.00494,-0.05433 -0.00988,-0.13335 -0.00988,-0.227189 0,-0.301272 0.029633,-0.735894 0.049389,-0.770467 0.034572,-0.143228 0.1135948,-0.484011 0.2568228,-0.484011 0.242005,0 0.375355,0.251883 0.464255,0.4445 0.05927,0.123472 0.09878,0.271639 0.118534,0.419806 0.0099,0.06421 0.01482,0.143228 0.01482,0.227189 0,0.13335 -0.0099,0.276578 -0.02963,0.375355 -0.01976,0.128412 -0.108656,0.464256 -0.172861,0.567973 -0.07902,0.03457 -0.172861,0.04939 -0.2667,0.04939 z m 0.246944,0.330905 c 0.251884,0 0.340784,-0.232128 0.409928,-0.429683 0.04445,-0.138289 0.08396,-0.291395 0.128411,-0.5334 0.01976,-0.113595 0.03457,-0.237067 0.03457,-0.360539 0,-0.2667 -0.05433,-0.548217 -0.158045,-0.785284 -0.06914,-0.148166 -0.162983,-0.306211 -0.291394,-0.429683 -0.128412,-0.123472 -0.335845,-0.22225 -0.508706,-0.22225 -0.172861,0 -0.2568224,0.06421 -0.3407836,0.182739 -0.083961,0.123472 -0.2321278,0.449439 -0.2617611,0.676628 -0.039511,0.148166 -0.049389,0.360539 -0.049389,0.558094 0,0.143228 0.00494,0.281517 0.014817,0.385234 0.024694,0.128411 0.019756,0.301272 0.069145,0.48895 0.049389,0.207433 0.1135945,0.474133 0.3704167,0.474133 z"
         id="path684" />
      <path
         d="m 11.455752,39.790834 c -0.06421,0.04939 -0.06421,0.103716 -0.06421,0.197555 0,0.05927 0.01976,0.113595 0.04939,0.167923 0.03951,0.08396 0.04445,0.167922 0.04445,0.246944 0,0.05927 -0.0049,0.118533 -0.0049,0.1778 0,0.02963 0,0.06421 0.0049,0.09384 -0.01975,0.108656 -0.03951,0.182739 -0.03951,0.2667 0,0.0889 0.08396,0.172861 0.1778,0.172861 0.192617,0 0.207433,-0.251883 0.212372,-0.385233 0.1778,0.148166 0.380295,0.385233 0.706262,0.385233 0.07902,0 0.242005,-0.103717 0.242005,-0.217311 0,-0.09878 -0.07902,-0.182739 -0.172861,-0.182739 -0.04445,0 -0.06914,0.03457 -0.103717,0.03457 -0.138289,0 -0.6223,-0.330905 -0.676628,-0.572911 0.0099,0 0.01976,0 0.02963,0.0049 0.02469,0.0049 0.04939,0.0099 0.07408,0.0099 0.474134,0 0.898878,-0.4445 0.898878,-0.943328 0,-0.469195 -0.276578,-0.908756 -0.814917,-0.908756 -0.409928,0 -0.567972,0.301272 -0.567972,0.775406 z m 0.321028,-0.755651 c 0,-0.242005 0.08396,-0.345722 0.291394,-0.345722 0.296334,0 0.419806,0.301272 0.419806,0.553156 0,0.335844 -0.291395,0.57785 -0.607484,0.602544 -0.06914,0 -0.08396,-0.0049 -0.08396,-0.22225 z"
         id="path686" />
      <path
         d="m 13.614038,40.437828 c 0,-0.212372 -0.01975,-0.434622 -0.02469,-0.548217 0,-0.06914 -0.01976,-0.237066 -0.04445,-0.419805 0,-0.0099 -0.0049,-0.0247 -0.0049,-0.03457 -0.02469,-0.192617 -0.04939,-0.395112 -0.05433,-0.513645 0.0049,-0.167922 0.03951,-0.202494 0.167922,-0.212372 h 0.01976 c 0.232128,0 0.459317,0.237066 0.553156,0.449439 0.128411,0.291394 0.261761,0.587728 0.261761,0.918633 v 0.06421 c 0,0.207433 -0.03457,0.523522 -0.246945,0.582789 -0.05433,0.01976 -0.172861,0.01976 -0.251883,0.01976 h -0.06914 c -0.108656,0 -0.167923,0.0049 -0.335845,0.03457 0.02469,-0.08396 0.02963,-0.207434 0.02963,-0.340784 z m 0.538339,0.66675 c 0.567973,0 0.701323,-0.592666 0.701323,-1.027289 0,-0.256822 -0.08396,-0.558094 -0.182739,-0.790222 -0.172861,-0.424745 -0.484011,-0.938389 -1.017412,-0.938389 -0.370416,0 -0.528461,0.227189 -0.528461,0.553155 0,0.07902 0.03457,0.409928 0.06915,0.735895 0,0.01976 0.0049,0.03951 0.0049,0.05927 0.02963,0.301272 0.05433,0.582789 0.05433,0.646994 0,0.123473 -0.0099,0.246945 -0.03951,0.360539 -0.0099,-0.0049 -0.02469,-0.0049 -0.03457,-0.0049 -0.09384,0 -0.1778,0.08396 -0.1778,0.182739 0,0.1778 0.227189,0.232128 0.3556,0.232128 z"
         id="path688" />
    </g>
    <g
       aria-label="root"
       id="text359"
       style="font-size:4.93889px;font-family:'Reprise Script';-inkscape-font-specification:'Reprise Script, Normal';stroke-width:0.264583"
       inkscape:label="text_root"
       transform="translate(9.3464624,-5.6915125)">
      <path
         d="m 7.0457987,25.183593 c -0.064205,0.04939 -0.064205,0.103717 -0.064205,0.197556 0,0.05927 0.019756,0.113594 0.049389,0.167922 0.039511,0.08396 0.04445,0.167922 0.04445,0.246944 0,0.05927 -0.00494,0.118534 -0.00494,0.1778 0,0.02963 0,0.06421 0.00494,0.09384 -0.019756,0.108656 -0.039511,0.182739 -0.039511,0.2667 0,0.0889 0.083961,0.172861 0.1778001,0.172861 0.1926167,0 0.2074334,-0.251883 0.2123723,-0.385233 0.1778,0.148167 0.3802945,0.385233 0.7062612,0.385233 0.079022,0 0.2420056,-0.103716 0.2420056,-0.217311 0,-0.09878 -0.079022,-0.182739 -0.1728611,-0.182739 -0.04445,0 -0.069145,0.03457 -0.1037167,0.03457 -0.1382889,0 -0.6223001,-0.330906 -0.6766279,-0.572912 0.00988,0 0.019756,0 0.029633,0.0049 0.024694,0.0049 0.049389,0.0099 0.074083,0.0099 0.4741334,0 0.8988779,-0.4445 0.8988779,-0.943328 0,-0.469194 -0.2765778,-0.908756 -0.8149168,-0.908756 -0.4099279,0 -0.5679724,0.301273 -0.5679724,0.775406 z m 0.3210279,-0.75565 c 0,-0.242006 0.083961,-0.345722 0.2913945,-0.345722 0.2963334,0 0.4198056,0.301272 0.4198056,0.553155 0,0.335845 -0.2913945,0.57785 -0.6074834,0.602545 -0.069145,0 -0.083961,-0.0049 -0.083961,-0.22225 z"
         id="path691" />
      <path
         d="m 9.3917576,26.171371 c -0.13335,0 -0.2667,-0.02963 -0.3210278,-0.06421 -0.054328,-0.172861 -0.083961,-0.360539 -0.1037167,-0.538339 -0.00494,-0.05433 -0.00988,-0.13335 -0.00988,-0.227189 0,-0.301272 0.029633,-0.735894 0.049389,-0.770466 0.034572,-0.143228 0.1135945,-0.484012 0.2568223,-0.484012 0.2420056,0 0.3753556,0.251884 0.4642556,0.444501 0.059267,0.123472 0.098778,0.271638 0.1185334,0.419805 0.00988,0.06421 0.014817,0.143228 0.014817,0.227189 0,0.13335 -0.00988,0.276578 -0.029633,0.375356 -0.019756,0.128411 -0.1086556,0.464255 -0.1728611,0.567972 -0.079022,0.03457 -0.1728612,0.04939 -0.2667001,0.04939 z m 0.2469445,0.330906 c 0.2518834,0 0.3407834,-0.232128 0.4099279,-0.429684 0.04445,-0.138289 0.08396,-0.291394 0.128411,-0.5334 0.01976,-0.113594 0.03457,-0.237067 0.03457,-0.360539 0,-0.2667 -0.05433,-0.548217 -0.158044,-0.785283 -0.069145,-0.148167 -0.1629835,-0.306212 -0.2913946,-0.429684 -0.1284112,-0.123472 -0.3358446,-0.22225 -0.5087057,-0.22225 -0.1728611,0 -0.2568223,0.06421 -0.3407834,0.182739 -0.083961,0.123472 -0.2321278,0.449439 -0.2617612,0.676628 -0.039511,0.148167 -0.049389,0.360539 -0.049389,0.558095 0,0.143227 0.00494,0.281516 0.014817,0.385233 0.024694,0.128411 0.019756,0.301272 0.069145,0.48895 0.049389,0.207433 0.1135944,0.474133 0.3704167,0.474133 z"
         id="path693" />
      <path
         d="m 11.248778,26.171371 c -0.13335,0 -0.2667,-0.02963 -0.321028,-0.06421 -0.05433,-0.172861 -0.08396,-0.360539 -0.103717,-0.538339 -0.0049,-0.05433 -0.0099,-0.13335 -0.0099,-0.227189 0,-0.301272 0.02963,-0.735894 0.04939,-0.770466 0.03457,-0.143228 0.113595,-0.484012 0.256823,-0.484012 0.242005,0 0.375355,0.251884 0.464255,0.444501 0.05927,0.123472 0.09878,0.271638 0.118534,0.419805 0.0099,0.06421 0.01482,0.143228 0.01482,0.227189 0,0.13335 -0.0099,0.276578 -0.02963,0.375356 -0.01976,0.128411 -0.108656,0.464255 -0.172861,0.567972 -0.07902,0.03457 -0.172861,0.04939 -0.2667,0.04939 z m 0.246944,0.330906 c 0.251884,0 0.340784,-0.232128 0.409928,-0.429684 0.04445,-0.138289 0.08396,-0.291394 0.128411,-0.5334 0.01976,-0.113594 0.03457,-0.237067 0.03457,-0.360539 0,-0.2667 -0.05433,-0.548217 -0.158044,-0.785283 -0.06915,-0.148167 -0.162983,-0.306212 -0.291395,-0.429684 -0.128411,-0.123472 -0.335844,-0.22225 -0.508705,-0.22225 -0.172861,0 -0.256823,0.06421 -0.340784,0.182739 -0.08396,0.123472 -0.232128,0.449439 -0.261761,0.676628 -0.03951,0.148167 -0.04939,0.360539 -0.04939,0.558095 0,0.143227 0.0049,0.281516 0.01482,0.385233 0.02469,0.128411 0.01975,0.301272 0.06914,0.48895 0.04939,0.207433 0.113595,0.474133 0.370417,0.474133 z"
         id="path695" />
      <path
         d="m 13.081103,26.349171 c 0,0.0889 0.07408,0.158044 0.162983,0.158044 0.192617,0 0.192617,-0.276577 0.192617,-0.370416 0,-0.04445 0,-0.153106 -0.05927,-1.570567 0,-0.128411 0,-0.281517 0.01976,-0.414867 l 0.3556,-0.05433 c 0,0.01976 -0.0049,0.0247 -0.0049,0.05433 0,0.0889 0.06915,0.158044 0.158045,0.158044 0.148166,0 0.187678,-0.162983 0.187678,-0.281516 0,-0.153106 -0.103717,-0.2667 -0.256823,-0.2667 -0.02963,0 -0.05433,0 -1.051983,0.182739 l -0.286456,0.05433 c -0.103717,0.03951 -0.1778,0.118534 -0.1778,0.232128 0,0.09384 0.06421,0.1778 0.167922,0.1778 0.08396,0 0.13335,-0.108655 0.167923,-0.108655 l 0.404989,-0.08396 c 0,0.01482 -0.0049,0.09878 -0.0049,0.375355 l 0.05927,1.447095 -0.01482,0.217311 c -0.0049,0.03457 -0.01976,0.05927 -0.01976,0.09384 z"
         id="path697" />
    </g>
    <g
       aria-label="harm"
       id="text1050"
       style="font-size:4.9389px;font-family:'Reprise Script';-inkscape-font-specification:'Reprise Script, Normal';stroke-width:0.264583"
       inkscape:label="text_harm"
       transform="translate(0.15059612,1.1528303)">
      <path
         d="m 46.279789,29.10572 c -0.03457,0.03457 -0.05927,0.07902 -0.05927,0.13335 0,0.04939 0.02963,0.103717 0.04939,0.13335 v 0.592668 c 0,0.03457 -0.0099,0.07408 -0.01976,0.113595 -0.0099,0.03951 -0.01482,0.07902 -0.01482,0.118533 0,0.0889 0.07902,0.167923 0.172861,0.167923 0.158045,0 0.192617,-0.172861 0.207434,-0.291395 V 29.37242 c 0.222251,-0.108656 0.513646,-0.162984 0.513646,-0.192617 0,0.03951 0.0049,0.296334 0.0049,0.977902 l -0.0049,0.03457 c 0,0.0889 0.07902,0.167922 0.172861,0.167922 0.0889,0 0.167923,-0.07902 0.167923,-0.167922 v -2.281772 c 0,-0.01976 0.01975,-0.05927 0.02469,-0.06421 0.01482,-0.01976 0.0247,-0.04445 0.0247,-0.0889 0,-0.09384 -0.07902,-0.167923 -0.172862,-0.167923 -0.138289,0 -0.217311,0.18274 -0.217311,0.301273 v 0.928513 c -0.172862,0.05433 -0.335846,0.113595 -0.508707,0.187679 -0.0049,-0.350662 -0.0099,-0.790224 -0.01976,-1.121131 0,-0.0889 -0.07902,-0.172861 -0.162983,-0.172861 -0.09878,0 -0.167923,0.07902 -0.167923,0.172861 z"
         id="path1101" />
      <path
         d="m 48.280042,29.01188 c 0.04445,-0.296334 0.07902,-0.770468 0.246945,-1.066802 0.103717,0.01482 0.192617,0.301273 0.207434,0.390173 0.01976,0.118534 0.04445,0.286456 0.06421,0.454379 z m -0.395112,1.145825 c 0,0.103717 0.04939,0.207434 0.1778,0.207434 0.09878,0 0.177801,-0.08396 0.177801,-0.1778 0,-0.01976 0,-0.04445 -0.0049,-0.05927 0.0049,-0.306212 0,-0.444501 0.01976,-0.755652 0.187678,-0.07902 0.474134,-0.192617 0.567973,-0.217311 V 30.1824 c 0,0.108656 0.06914,0.182739 0.1778,0.182739 0.09878,0 0.18274,-0.07408 0.18274,-0.182739 0.0049,-0.0099 0.01482,-0.04939 0.01482,-0.301273 0,-0.192617 -0.0049,-0.508707 -0.03457,-1.037169 -0.01975,-0.296334 -0.03457,-0.395112 -0.05433,-0.49389 0,-0.0099 -0.0049,-0.01482 -0.0049,-0.0247 -0.05433,-0.321028 -0.162983,-0.726018 -0.558095,-0.735896 -0.197556,0 -0.325968,0.167923 -0.429685,0.400051 -0.06421,0.148167 -0.108655,0.321029 -0.123472,0.439562 -0.03951,0.291395 -0.06421,0.370418 -0.07408,0.627241 -0.0099,0.01482 -0.03457,0.03457 -0.06914,0.05927 -0.03951,0.02469 -0.08396,0.05433 -0.08396,0.13829 0,0.06914 0.02963,0.118533 0.123473,0.167922 z"
         id="path1103" />
      <path
         d="m 49.495011,29.041514 c -0.06421,0.04939 -0.06421,0.103717 -0.06421,0.197556 0,0.05927 0.01976,0.113595 0.04939,0.167922 0.03951,0.08396 0.04445,0.167923 0.04445,0.246945 0,0.05927 -0.0049,0.118534 -0.0049,0.177801 0,0.02963 0,0.06421 0.0049,0.09384 -0.01976,0.108656 -0.03951,0.182739 -0.03951,0.266701 0,0.0889 0.08396,0.172861 0.177801,0.172861 0.192617,0 0.207433,-0.251884 0.212372,-0.385234 0.177801,0.148167 0.380296,0.385234 0.706263,0.385234 0.07902,0 0.242006,-0.103717 0.242006,-0.217312 0,-0.09878 -0.07902,-0.182739 -0.172861,-0.182739 -0.04445,0 -0.06914,0.03457 -0.103717,0.03457 -0.138289,0 -0.622302,-0.330906 -0.67663,-0.572912 0.0099,0 0.01976,0 0.02963,0.0049 0.02469,0.0049 0.04939,0.0099 0.07408,0.0099 0.474135,0 0.89888,-0.444501 0.89888,-0.94333 0,-0.469196 -0.276578,-0.908758 -0.814918,-0.908758 -0.409929,0 -0.567974,0.301273 -0.567974,0.775408 z m 0.321029,-0.755652 c 0,-0.242006 0.08396,-0.345723 0.291395,-0.345723 0.296334,0 0.419806,0.301273 0.419806,0.553157 0,0.335845 -0.291395,0.577851 -0.607485,0.602546 -0.06914,0 -0.08396,-0.0049 -0.08396,-0.222251 z"
         id="path1105" />
      <path
         d="m 51.658243,27.589477 c -0.508706,0 -0.572912,0.770469 -0.58279,0.94333 0,0.03951 -0.0049,0.158045 -0.0049,0.296334 0,0.548218 0.03457,0.933452 0.05927,1.106314 0.0049,0.03457 0.05433,0.429684 0.261762,0.429684 0.09384,0 0.172861,-0.08396 0.172861,-0.172861 0,-0.05433 -0.04445,-0.13829 -0.07902,-0.202495 -0.09878,-0.261762 -0.09878,-0.63218 -0.09878,-0.849491 v -0.291395 c 0,-0.128412 0,-0.207434 0.01482,-0.286456 0.02963,-0.187679 0.02963,-0.523524 0.242006,-0.642057 0.162983,0.09384 0.246945,0.518584 0.246945,0.666751 0,0.128411 0.04445,0.938391 0.04445,1.387831 0,0.128411 0.02963,0.227189 0.172861,0.227189 0.143228,0 0.172862,-0.09878 0.172862,-0.227189 0,-0.44944 0.04445,-1.25942 0.04445,-1.387831 0,-0.113595 0.0889,-0.661813 0.242006,-0.661813 0.197556,0 0.212373,0.444501 0.237067,0.558096 l 0.0247,0.459318 c 0.0049,0.06421 0.0099,0.1778 0.0099,0.316089 0,0.222251 -0.01976,0.503768 -0.103717,0.726019 -0.03951,0.06421 -0.08396,0.153106 -0.08396,0.207434 0,0.0889 0.07902,0.172861 0.172862,0.172861 0.207434,0 0.256823,-0.395112 0.261762,-0.429684 0,0.0049 0.05927,-0.321029 0.05927,-1.106314 0,-0.138289 -0.0049,-0.256823 -0.0049,-0.296334 -0.0099,-0.172861 -0.07408,-0.94333 -0.58279,-0.94333 -0.242006,0 -0.390173,0.301273 -0.44944,0.479074 -0.05927,-0.207434 -0.207433,-0.479074 -0.44944,-0.479074 z"
         id="path1107" />
    </g>
    <g
       aria-label="voice"
       id="text1185"
       style="font-size:4.9389px;font-family:'Reprise Script';-inkscape-font-specification:'Reprise Script, Normal';stroke-width:0.264583"
       inkscape:label="text_voice"
       transform="translate(9.6982206,14.059805)">
      <path
         d="m 37.018671,60.096509 c 0,0.0049 0.0049,0.0099 0.0049,0.01976 0.01976,0.0889 0.06421,0.266701 0.167923,0.266701 0.128411,0 0.158045,-0.103717 0.182739,-0.202495 l 0.0099,-0.02963 c 0.01976,-0.04939 0.523524,-1.629837 0.622302,-1.901477 0.02469,-0.06914 0.05927,-0.143228 0.05927,-0.301273 0,-0.108655 -0.04939,-0.246945 -0.1778,-0.246945 -0.09878,0 -0.1778,0.07902 -0.1778,0.177801 0,0.04445 0.01482,0.07408 0.01482,0.103717 0,0.08396 -0.09384,0.360539 -0.113594,0.409928 -0.133351,0.365479 -0.256823,0.760591 -0.414868,1.190275 -0.128411,-0.385234 -0.291395,-0.893941 -0.434623,-1.293992 -0.03457,-0.256822 -0.143228,-0.419806 -0.27164,-0.419806 -0.0889,0 -0.172861,0.06421 -0.172861,0.167923 0,0.06421 0.03951,0.148167 0.06914,0.207433 z"
         id="path1239" />
      <path
         d="m 38.944831,60.04712 c -0.13335,0 -0.266701,-0.02963 -0.321029,-0.06421 -0.05433,-0.172861 -0.08396,-0.36054 -0.103717,-0.53834 -0.0049,-0.05433 -0.0099,-0.13335 -0.0099,-0.227189 0,-0.301273 0.02963,-0.735896 0.04939,-0.770469 0.03457,-0.143228 0.113594,-0.484012 0.256822,-0.484012 0.242007,0 0.375357,0.251884 0.464257,0.444501 0.05927,0.123473 0.09878,0.27164 0.118534,0.419807 0.0099,0.0642 0.01482,0.143228 0.01482,0.227189 0,0.13335 -0.0099,0.276578 -0.02963,0.375356 -0.01976,0.128412 -0.108656,0.464257 -0.172862,0.567974 -0.07902,0.03457 -0.172861,0.04939 -0.2667,0.04939 z m 0.246945,0.330906 c 0.251884,0 0.340784,-0.232128 0.409929,-0.429684 0.04445,-0.138289 0.08396,-0.291395 0.128411,-0.533401 0.01976,-0.113595 0.03457,-0.237068 0.03457,-0.36054 0,-0.266701 -0.05433,-0.548218 -0.158045,-0.785285 -0.06914,-0.148167 -0.162983,-0.306212 -0.291395,-0.429684 -0.128411,-0.123473 -0.335845,-0.222251 -0.508706,-0.222251 -0.172862,0 -0.256823,0.06421 -0.340784,0.182739 -0.08396,0.123473 -0.232129,0.44944 -0.261762,0.67663 -0.03951,0.148167 -0.04939,0.360539 -0.04939,0.558095 0,0.143228 0.0049,0.281518 0.01482,0.385235 0.02469,0.128411 0.01976,0.301272 0.06914,0.488951 0.04939,0.207433 0.113595,0.474134 0.370418,0.474134 z"
         id="path1241" />
      <path
         d="m 40.115348,59.923647 c 0,0.113595 -0.02963,0.133351 -0.02963,0.321029 0,0.02469 0.02963,0.138289 0.187678,0.138289 0.09878,0 0.202495,-0.03951 0.202495,-0.207434 0,-0.04939 -0.01482,-0.09878 -0.03951,-0.123472 -0.01482,-0.217312 -0.01482,-0.409929 -0.01482,-0.602546 v -0.553157 c 0,-0.237067 -0.03457,-0.563034 -0.03457,-0.834674 v -0.02469 c 0,-0.0889 -0.0099,-0.286457 -0.167922,-0.286457 -0.128412,0 -0.207434,0.103717 -0.207434,0.217312 0,0.08396 0.05927,0.158045 0.05927,0.227189 0.03457,0.291395 0.04445,0.533402 0.04445,0.745774 0,0.22719 -0.0099,0.419807 -0.0099,0.637118 0,0.108656 0,0.222251 0.0099,0.345723 z"
         id="path1243" />
      <path
         d="m 41.908164,60.378026 c 0.09878,-0.0049 0.330906,-0.138289 0.330906,-0.286456 0,-0.113595 -0.05433,-0.222251 -0.182739,-0.222251 -0.158045,0 -0.133351,0.158045 -0.246945,0.158045 h -0.143228 c -0.162984,0 -0.36054,-0.0049 -0.424746,-0.04939 -0.153106,-0.103717 -0.187678,-0.646996 -0.187678,-0.874185 v -0.04445 c 0.0099,-0.232128 0.03951,-0.444501 0.05433,-0.533401 0.01976,-0.133351 0.187678,-0.563035 0.345723,-0.572913 0.286456,0 0.162984,0.385234 0.409929,0.385234 0.09384,0 0.172861,-0.07902 0.172861,-0.167922 0,-0.246945 -0.276578,-0.563035 -0.563035,-0.563035 -0.424745,0 -0.71614,0.691446 -0.735896,1.027291 -0.0049,0.0889 -0.01482,0.18274 -0.01482,0.558096 0,0.375357 0.07408,1.07668 0.553156,1.175458 0.09384,0 0.217312,0.01482 0.31609,0.01482 z"
         id="path1245" />
      <path
         d="m 43.55281,60.378026 c 0.153106,0 0.400051,-0.09878 0.400051,-0.316089 0,-0.09384 -0.07408,-0.167923 -0.167923,-0.167923 -0.07408,0 -0.138289,0.03951 -0.158045,0.103717 -0.01976,0.04445 -0.0889,0.04445 -0.158045,0.04445 h -0.01976 c -0.09384,0.0049 -0.207434,0.0099 -0.301273,0.0099 -0.261762,0 -0.296334,-0.09878 -0.296334,-0.355601 0,-0.03951 0.0049,-0.0889 0.0049,-0.266701 0.09878,-0.0049 0.182739,-0.05927 0.261762,-0.103717 0.03951,-0.01975 0.06914,-0.03457 0.128411,-0.04939 0.0099,-0.0049 0.03951,-0.0049 0.09384,-0.0099 0.0889,0 0.148167,-0.09384 0.148167,-0.172862 0,-0.0889 -0.07902,-0.172861 -0.167923,-0.172861 -0.13335,0 -0.246945,0.04445 -0.404989,0.118533 l -0.06914,0.03951 -0.0099,-0.123472 c -0.0049,-0.03951 -0.0049,-0.08396 -0.0049,-0.123473 0,-0.187678 0.03457,-0.385234 0.103717,-0.661812 0.01976,-0.07902 0.518585,-0.192617 0.518585,-0.202495 0,0.0049 0.0049,0.01976 0.0049,0.02963 0.01976,0.07902 0.0889,0.133351 0.172861,0.133351 0.0889,0 0.162984,-0.07902 0.162984,-0.177801 0,-0.13335 -0.128412,-0.335845 -0.281517,-0.335845 -0.153106,0 -0.296334,0.04939 -0.434624,0.108656 -0.1778,0.05927 -0.360539,0.123472 -0.439562,0.296334 -0.128411,0.276578 -0.13335,0.785285 -0.13335,1.140886 -0.01482,0.05927 -0.01976,0.09384 -0.01976,0.128411 0,0.02963 0.0049,0.05927 0.01482,0.103717 0.02963,0.103717 0.0247,0.31609 0.03951,0.395112 0.0099,0.31609 0.138289,0.592668 0.503768,0.592668 z"
         id="path1247" />
    </g>
    <g
       aria-label="harmony"
       id="text449"
       style="font-size:3.52778px;font-family:'Reprise Script';-inkscape-font-specification:'Reprise Script, Normal';display:inline;fill:#f3edd5;stroke-width:0.264583"
       inkscape:label="text_harmony_out">
      <path
         d="m 26.188519,96.233129 c -0.02469,0.02469 -0.04233,0.05644 -0.04233,0.09525 0,0.03528 0.02117,0.07408 0.03528,0.09525 v 0.423333 c 0,0.02469 -0.0071,0.05292 -0.01411,0.08114 -0.0071,0.02822 -0.01058,0.05645 -0.01058,0.08467 0,0.0635 0.05645,0.119944 0.123473,0.119944 0.112889,0 0.137583,-0.123472 0.148166,-0.208139 V 96.42363 c 0.158751,-0.07761 0.36689,-0.116417 0.36689,-0.137584 0,0.02822 0.0035,0.211667 0.0035,0.698501 l -0.0035,0.02469 c 0,0.0635 0.05644,0.119945 0.123472,0.119945 0.0635,0 0.119944,-0.05645 0.119944,-0.119945 v -1.629834 c 0,-0.01411 0.01411,-0.04233 0.01764,-0.04586 0.01058,-0.01411 0.01764,-0.03175 0.01764,-0.0635 0,-0.06703 -0.05644,-0.119944 -0.123472,-0.119944 -0.09878,0 -0.155222,0.130528 -0.155222,0.215195 v 0.663222 c -0.123473,0.03881 -0.239889,0.08114 -0.363362,0.134056 -0.0035,-0.250473 -0.0071,-0.564445 -0.01411,-0.800806 0,-0.0635 -0.05644,-0.123473 -0.116417,-0.123473 -0.07055,0 -0.119944,0.05645 -0.119944,0.123473 z"
         id="path859" />
      <path
         d="m 27.617269,96.166102 c 0.03175,-0.211667 0.05645,-0.550334 0.176389,-0.762001 0.07408,0.01058 0.137584,0.215195 0.148167,0.278695 0.01411,0.08467 0.03175,0.204611 0.04586,0.324555 z m -0.282222,0.818445 c 0,0.07408 0.03528,0.148166 0.127,0.148166 0.07056,0 0.127,-0.05997 0.127,-0.127 0,-0.01411 0,-0.03175 -0.0035,-0.04233 0.0035,-0.218722 0,-0.3175 0.01411,-0.53975 0.134056,-0.05644 0.338667,-0.137584 0.405695,-0.155223 v 0.733778 c 0,0.07761 0.04939,0.130528 0.127,0.130528 0.07056,0 0.130528,-0.05292 0.130528,-0.130528 0.0035,-0.0071 0.01058,-0.03528 0.01058,-0.215194 0,-0.137584 -0.0035,-0.363361 -0.02469,-0.740834 -0.01411,-0.211667 -0.02469,-0.282222 -0.03881,-0.352778 0,-0.0071 -0.0035,-0.01058 -0.0035,-0.01764 -0.03881,-0.229306 -0.116417,-0.518584 -0.39864,-0.525639 -0.141111,0 -0.232833,0.119944 -0.306916,0.28575 -0.04586,0.105834 -0.07761,0.229306 -0.08819,0.313973 -0.02822,0.208139 -0.04586,0.264583 -0.05292,0.448028 -0.0071,0.01058 -0.02469,0.02469 -0.04939,0.04233 -0.02822,0.01764 -0.05997,0.03881 -0.05997,0.09878 0,0.04939 0.02117,0.08467 0.08819,0.119944 z"
         id="path861" />
      <path
         d="m 28.485103,96.187268 c -0.04586,0.03528 -0.04586,0.07408 -0.04586,0.141111 0,0.04233 0.01411,0.08114 0.03528,0.119945 0.02822,0.05997 0.03175,0.119945 0.03175,0.176389 0,0.04233 -0.0035,0.08467 -0.0035,0.127 0,0.02117 0,0.04586 0.0035,0.06703 -0.01411,0.07761 -0.02822,0.130528 -0.02822,0.1905 0,0.0635 0.05997,0.123472 0.127,0.123472 0.137584,0 0.148167,-0.179916 0.151695,-0.275167 0.127,0.105834 0.271639,0.275167 0.504472,0.275167 0.05645,0 0.172862,-0.07408 0.172862,-0.155222 0,-0.07056 -0.05645,-0.130528 -0.123473,-0.130528 -0.03175,0 -0.04939,0.02469 -0.07408,0.02469 -0.09878,0 -0.4445,-0.236362 -0.483306,-0.409223 0.0071,0 0.01411,0 0.02117,0.0035 0.01764,0.0035 0.03528,0.0071 0.05292,0.0071 0.338667,0 0.642056,-0.3175 0.642056,-0.673806 0,-0.335139 -0.197555,-0.649111 -0.582083,-0.649111 -0.292806,0 -0.405695,0.215195 -0.405695,0.553861 z m 0.229305,-0.53975 c 0,-0.172861 0.05997,-0.246945 0.208139,-0.246945 0.211667,0 0.299862,0.215195 0.299862,0.395112 0,0.239889 -0.208139,0.41275 -0.433917,0.430389 -0.04939,0 -0.05997,-0.0035 -0.05997,-0.15875 z"
         id="path863" />
      <path
         d="m 30.030266,95.150101 c -0.363361,0 -0.409222,0.550334 -0.416278,0.673806 0,0.02822 -0.0035,0.112889 -0.0035,0.211667 0,0.391583 0.0247,0.66675 0.04233,0.790222 0.0035,0.0247 0.0388,0.306917 0.186972,0.306917 0.06703,0 0.123472,-0.05997 0.123472,-0.123472 0,-0.03881 -0.03175,-0.09878 -0.05644,-0.144639 -0.07056,-0.186972 -0.07056,-0.451556 -0.07056,-0.606778 v -0.208139 c 0,-0.09172 0,-0.148167 0.01058,-0.204611 0.02117,-0.134056 0.02117,-0.373945 0.172861,-0.458612 0.116417,0.06703 0.176389,0.370417 0.176389,0.47625 0,0.09172 0.03175,0.670279 0.03175,0.991307 0,0.09172 0.02117,0.162278 0.123472,0.162278 0.102306,0 0.123473,-0.07056 0.123473,-0.162278 0,-0.321028 0.03175,-0.899584 0.03175,-0.991307 0,-0.08114 0.0635,-0.472722 0.172861,-0.472722 0.141111,0 0.151694,0.3175 0.169333,0.398639 l 0.01764,0.328084 c 0.0035,0.04586 0.0071,0.127 0.0071,0.225778 0,0.15875 -0.01411,0.359833 -0.07408,0.518583 -0.02822,0.04586 -0.05997,0.109361 -0.05997,0.148167 0,0.0635 0.05644,0.123472 0.123472,0.123472 0.148167,0 0.183445,-0.282222 0.186973,-0.306917 0,0.0035 0.04233,-0.229305 0.04233,-0.790222 0,-0.09878 -0.0035,-0.183445 -0.0035,-0.211667 -0.0071,-0.123472 -0.05292,-0.673806 -0.416278,-0.673806 -0.172861,0 -0.278694,0.215195 -0.321028,0.342195 -0.04233,-0.148167 -0.148166,-0.342195 -0.321028,-0.342195 z"
         id="path865" />
      <path
         d="m 31.83296,96.892824 c -0.09525,0 -0.190501,-0.02117 -0.229306,-0.04586 -0.03881,-0.123472 -0.05997,-0.257528 -0.07408,-0.384528 -0.0035,-0.0388 -0.0071,-0.09525 -0.0071,-0.162278 0,-0.215194 0.02117,-0.525639 0.03528,-0.550333 0.02469,-0.102306 0.08114,-0.345723 0.183444,-0.345723 0.172862,0 0.268112,0.179917 0.331612,0.3175 0.04233,0.08819 0.07055,0.194028 0.08467,0.299862 0.0071,0.04586 0.01058,0.102305 0.01058,0.162277 0,0.09525 -0.0071,0.197556 -0.02117,0.268112 -0.01411,0.09172 -0.07761,0.331611 -0.123472,0.405694 -0.05645,0.02469 -0.123473,0.03528 -0.1905,0.03528 z m 0.176389,0.236362 c 0.179916,0 0.243416,-0.165806 0.292805,-0.306917 0.03175,-0.09878 0.05997,-0.208139 0.09172,-0.381001 0.01411,-0.08114 0.02469,-0.169333 0.02469,-0.257528 0,-0.1905 -0.03881,-0.391583 -0.112889,-0.560917 -0.04939,-0.105833 -0.116417,-0.218722 -0.208139,-0.306916 -0.09172,-0.08819 -0.239889,-0.158751 -0.363361,-0.158751 -0.123473,0 -0.183445,0.04586 -0.243417,0.130528 -0.05997,0.08819 -0.165806,0.321028 -0.186972,0.483306 -0.02822,0.105834 -0.03528,0.257528 -0.03528,0.398639 0,0.102306 0.0035,0.201084 0.01058,0.275167 0.01764,0.09172 0.01411,0.215195 0.04939,0.34925 0.03528,0.148167 0.08114,0.338667 0.264584,0.338667 z"
         id="path867" />
      <path
         d="m 33.032403,96.268407 c 0.05292,0.148167 0.105833,0.303389 0.155222,0.426862 0.04233,0.109361 0.201084,0.437444 0.331611,0.437444 0.176389,0 0.148167,-0.306917 0.155223,-0.377472 l 0.0071,-0.04939 c 0.02117,-0.172861 0.04233,-0.373945 0.04233,-0.592667 v -0.03881 c 0,-0.169333 -0.03175,-0.924278 -0.321028,-0.924278 -0.07056,0 -0.127,0.05644 -0.127,0.123472 0,0.04586 0.0388,0.09525 0.07055,0.127 0.105834,0.215195 0.137584,0.426862 0.137584,0.638529 0,0.165805 -0.02117,0.331611 -0.03881,0.500944 l -0.01058,0.09878 c -0.137584,-0.299861 -0.22225,-0.613834 -0.349251,-0.913695 -0.04939,-0.123472 -0.127,-0.423334 -0.208139,-0.486834 -0.03881,-0.03175 -0.07408,-0.03175 -0.105833,-0.03175 -0.148167,0 -0.169333,0.194028 -0.169333,0.313973 0,0.04233 0.0035,0.07761 0.0035,0.08819 0,0.197556 -0.0035,0.395112 -0.0035,0.58914 0,0.179916 0.01411,0.363361 0.01411,0.518583 0,0.08467 -0.02117,0.218723 -0.02117,0.292806 0,0.0635 0.05292,0.123472 0.119945,0.123472 0.137583,0 0.141111,-0.183444 0.141111,-0.257528 0,-0.313972 -0.01058,-0.620889 -0.01058,-0.927806 v -0.183444 z"
         id="path869" />
      <path
         d="m 34.281233,96.966908 c 0,0.07408 0.03528,0.165805 0.123473,0.165805 0.06703,0 0.119944,-0.05292 0.119944,-0.116416 0,-0.03175 -0.01058,-0.05292 -0.01058,-0.07761 0,-0.472722 0.211666,-1.121834 0.416278,-1.531056 0.01764,-0.03528 0.07055,-0.07408 0.07055,-0.141111 0,-0.0635 -0.04939,-0.116417 -0.116416,-0.116417 -0.08819,0 -0.144639,0.109361 -0.172862,0.172861 -0.09878,0.22225 -0.1905,0.465667 -0.257528,0.737306 -0.141111,-0.186972 -0.254,-0.384528 -0.324555,-0.610306 0.01411,-0.05644 0.01764,-0.07055 0.01764,-0.08819 0,-0.0635 -0.04939,-0.116417 -0.116417,-0.116417 -0.105834,0 -0.130528,0.109361 -0.130528,0.215195 0,0.197555 0.370417,0.649111 0.479778,0.860778 -0.05292,0.236361 -0.08114,0.363361 -0.09878,0.645584 z"
         id="path871" />
    </g>
    <g
       aria-label="bass"
       id="text535"
       style="font-size:3.52777px;font-family:'Reprise Script';-inkscape-font-specification:'Reprise Script, Normal';display:none;fill:#f3edd5;stroke-width:0.264583"
       transform="translate(0,0.52916667)"
       inkscape:label="text_bass_out">
      <path
         d="m 11.275086,117.76662 c 0,-0.10583 0.05292,-0.19402 0.07408,-0.22225 0.02117,-0.0318 0.05292,-0.0494 0.09525,-0.0494 0.102306,0 0.151695,0.0741 0.151695,0.17286 0,0.16227 -0.109361,0.29633 -0.28575,0.3563 z m 0.07408,1.21708 c 0.01411,-0.0882 0.01411,-0.0988 0.01411,-0.11641 0,-0.17639 -0.03528,-0.36689 -0.03528,-0.49742 0,-0.12347 0.116416,-0.17991 0.29986,-0.17991 0.208139,0 0.289278,0.22225 0.289278,0.44097 0,0.17639 -0.04939,0.34572 -0.232833,0.36689 z m 0.359832,0.24695 c 0.278694,-0.007 0.440971,-0.34925 0.440971,-0.55739 0,-0.25753 -0.08467,-0.68791 -0.398638,-0.71261 l 0.01058,-0.0212 c 0.03175,-0.0741 0.06703,-0.15523 0.06703,-0.23989 0,-0.26106 -0.151694,-0.44097 -0.405693,-0.44097 -0.130528,0 -0.215194,0.1023 -0.292805,0.19755 -0.03175,0.0318 -0.09172,0.1905 -0.09172,0.23636 0,0.16581 0.04586,0.29281 0.04586,0.40922 0,0.0247 -0.03528,0.06 -0.03528,0.10936 0,0.0459 0.02822,0.0811 0.06703,0.0953 -0.0035,0.0318 -0.0071,0.0706 -0.0071,0.11642 0,0.10936 0.01058,0.254 0.01058,0.37042 0,0.0741 -0.0035,0.14111 -0.01764,0.17991 -0.01764,0.0176 -0.05645,0.067 -0.05645,0.11289 0,0.0635 0.01764,0.11994 0.0882,0.11994 0.01411,0 0.02822,-0.004 0.04233,-0.007 0.01764,-0.004 0.03175,-0.004 0.04939,-0.004 0.07761,0 0.155222,0.0318 0.282221,0.0388 z"
         id="path874" />
      <path
         d="m 12.693249,118.26757 c 0.03175,-0.21167 0.05644,-0.55033 0.176389,-0.762 0.07408,0.0106 0.137583,0.21519 0.148166,0.27869 0.01411,0.0847 0.03175,0.20461 0.04586,0.32456 z m -0.282221,0.81844 c 0,0.0741 0.03528,0.14817 0.126999,0.14817 0.07056,0 0.127,-0.06 0.127,-0.127 0,-0.0141 0,-0.0318 -0.0035,-0.0423 0.0035,-0.21872 0,-0.3175 0.01411,-0.53975 0.134056,-0.0564 0.338666,-0.13758 0.405694,-0.15522 v 0.73378 c 0,0.0776 0.04939,0.13053 0.127,0.13053 0.07056,0 0.130527,-0.0529 0.130527,-0.13053 0.0035,-0.007 0.01058,-0.0353 0.01058,-0.21519 0,-0.13759 -0.0035,-0.36337 -0.02469,-0.74084 -0.01411,-0.21166 -0.02469,-0.28222 -0.0388,-0.35277 0,-0.007 -0.0035,-0.0106 -0.0035,-0.0176 -0.03881,-0.22931 -0.116417,-0.51858 -0.398638,-0.52564 -0.141111,0 -0.232833,0.11994 -0.306916,0.28575 -0.04586,0.10583 -0.07761,0.2293 -0.08819,0.31397 -0.02822,0.20814 -0.04586,0.26458 -0.05292,0.44803 -0.0071,0.0106 -0.02469,0.0247 -0.04939,0.0423 -0.02822,0.0176 -0.05997,0.0388 -0.05997,0.0988 0,0.0494 0.02117,0.0847 0.08819,0.11994 z"
         id="path876" />
      <path
         d="m 13.765691,119.17773 c 0,0 0.155222,0.0494 0.261055,0.0564 0.07056,0 0.148166,-0.007 0.253999,-0.0282 0.246944,-0.0635 0.359833,-0.31397 0.359833,-0.56091 0,-0.15875 -0.07761,-0.33867 -0.22225,-0.45508 -0.14111,-0.11289 -0.63147,-0.24342 -0.63147,-0.46567 0,-0.14464 0.197555,-0.19755 0.310443,-0.19755 0.0071,0 0.07408,0.004 0.09878,0.0106 -0.04586,0.0212 -0.06703,0.067 -0.06703,0.12347 0,0.0952 0.09172,0.13406 0.179916,0.13406 0.09525,0 0.186972,-0.12348 0.186972,-0.21167 0,-0.0353 -0.01411,-0.0882 -0.03175,-0.11289 -0.07408,-0.11994 -0.201083,-0.19755 -0.335138,-0.19755 -0.218722,0 -0.448027,0.0847 -0.557387,0.28927 -0.01764,0.0388 -0.03528,0.0882 -0.03528,0.16581 0,0.33161 0.451554,0.47978 0.691443,0.62794 0.09172,0.0564 0.144638,0.15875 0.158749,0.26811 0.0035,0.0247 0.0035,0.0459 0.0035,0.067 0,0.0917 -0.02117,0.15875 -0.09172,0.22931 -0.04233,0.0388 -0.123472,0.0741 -0.23636,0.0741 -0.08819,0 -0.183444,-0.0212 -0.28575,-0.0706 -0.01058,-0.0776 -0.04233,-0.14464 -0.134055,-0.14464 -0.07408,0 -0.127,0.0882 -0.127,0.1517 0,0.15522 0.112889,0.20108 0.236361,0.24341 0.0035,0 0.01058,0.004 0.01411,0.004 z"
         id="path878" />
      <path
         d="m 15.067436,119.17773 c 0,0 0.155222,0.0494 0.261055,0.0564 0.07056,0 0.148167,-0.007 0.254,-0.0282 0.246944,-0.0635 0.359832,-0.31397 0.359832,-0.56091 0,-0.15875 -0.07761,-0.33867 -0.222249,-0.45508 -0.141111,-0.11289 -0.631471,-0.24342 -0.631471,-0.46567 0,-0.14464 0.197555,-0.19755 0.310444,-0.19755 0.0071,0 0.07408,0.004 0.09878,0.0106 -0.04586,0.0212 -0.06703,0.067 -0.06703,0.12347 0,0.0952 0.09172,0.13406 0.179916,0.13406 0.09525,0 0.186972,-0.12348 0.186972,-0.21167 0,-0.0353 -0.01411,-0.0882 -0.03175,-0.11289 -0.07408,-0.11994 -0.201083,-0.19755 -0.335138,-0.19755 -0.218722,0 -0.448027,0.0847 -0.557388,0.28927 -0.01764,0.0388 -0.03528,0.0882 -0.03528,0.16581 0,0.33161 0.451555,0.47978 0.691443,0.62794 0.09172,0.0564 0.144639,0.15875 0.15875,0.26811 0.0035,0.0247 0.0035,0.0459 0.0035,0.067 0,0.0917 -0.02117,0.15875 -0.09172,0.22931 -0.04233,0.0388 -0.123472,0.0741 -0.236361,0.0741 -0.08819,0 -0.183444,-0.0212 -0.285749,-0.0706 -0.01058,-0.0776 -0.04233,-0.14464 -0.134056,-0.14464 -0.07408,0 -0.126999,0.0882 -0.126999,0.1517 0,0.15522 0.112888,0.20108 0.23636,0.24341 0.0035,0 0.01058,0.004 0.01411,0.004 z"
         id="path880" />
    </g>
    <g
       aria-label="gate"
       id="text539"
       style="font-size:3.52777px;font-family:'Reprise Script';-inkscape-font-specification:'Reprise Script, Normal';display:none;fill:#f3edd5;stroke-width:0.264583"
       transform="translate(0,-0.13229167)"
       inkscape:label="text_gate_out">
      <path
         d="m 28.636744,119.32771 c 0.08819,0 0.253999,-0.004 0.349249,-0.0529 0.02822,0.0282 0.05292,0.0494 0.07761,0.0494 0.06703,0 0.119944,-0.0564 0.119944,-0.12348 0,-0.0564 -0.0388,-0.10583 -0.05997,-0.15169 -0.08114,-0.15169 -0.09525,-0.54328 -0.09525,-0.58208 0,-0.0106 0.190499,-0.0247 0.190499,-0.13759 0,-0.0811 -0.05997,-0.13052 -0.127,-0.13052 -0.08819,0 -0.162277,0.0494 -0.243416,0.1023 -0.07761,0.0529 -0.148166,0.0988 -0.243416,0.0988 -0.07408,0.007 -0.116416,0.06 -0.116416,0.12347 0,0.0706 0.04586,0.127 0.123472,0.127 0.08467,0 0.137583,-0.0494 0.201083,-0.0494 0.0071,0 0.02822,0.23636 0.02822,0.29634 0.0035,0.0494 0.0035,0.12347 0.0035,0.15522 -0.01764,0.007 -0.04939,0.0106 -0.0635,0.0141 -0.01058,0.004 -0.08467,0.007 -0.169333,0.007 -0.09172,0 -0.194028,-0.004 -0.250472,-0.0247 -0.07408,-0.0247 -0.08819,-0.21519 -0.09172,-0.29633 v -0.0318 c 0,-0.3175 0.04939,-0.50095 0.148166,-0.80434 0.04586,-0.10936 0.15875,-0.32102 0.268111,-0.32102 0.109361,0 0.127,0.0953 0.144638,0.18344 0,0.004 0.0035,0.0106 0.0035,0.0141 0,0.004 0.0035,0.007 0.0035,0.0106 0.02117,0.0847 0.03528,0.15169 0.130527,0.15169 0.07056,0 0.127,-0.06 0.127,-0.127 0,-0.21872 -0.162277,-0.47978 -0.366888,-0.47978 -0.306916,0 -0.465666,0.28575 -0.550332,0.50095 -0.03528,0.0917 -0.0635,0.1905 -0.08819,0.29633 -0.01764,0.0706 -0.04586,0.20108 -0.05645,0.31044 -0.0035,0.0388 -0.0071,0.19756 -0.0071,0.30692 v 0.067 c 0.0035,0.2293 0.137583,0.49036 0.419804,0.49036 z"
         id="path883" />
      <path
         d="m 29.642157,118.3611 c 0.03175,-0.21166 0.05644,-0.55033 0.176388,-0.76199 0.07408,0.0106 0.137583,0.21519 0.148167,0.27869 0.01411,0.0847 0.03175,0.20461 0.04586,0.32455 z m -0.282222,0.81845 c 0,0.0741 0.03528,0.14816 0.127,0.14816 0.07056,0 0.127,-0.06 0.127,-0.127 0,-0.0141 0,-0.0318 -0.0035,-0.0423 0.0035,-0.21872 0,-0.3175 0.01411,-0.53975 0.134055,-0.0564 0.338666,-0.13758 0.405694,-0.15522 v 0.73378 c 0,0.0776 0.04939,0.13052 0.126999,0.13052 0.07056,0 0.130528,-0.0529 0.130528,-0.13052 0.0035,-0.007 0.01058,-0.0353 0.01058,-0.2152 0,-0.13758 -0.0035,-0.36336 -0.02469,-0.74083 -0.01411,-0.21167 -0.02469,-0.28222 -0.03881,-0.35278 0,-0.007 -0.0035,-0.0106 -0.0035,-0.0176 -0.0388,-0.2293 -0.116416,-0.51858 -0.398638,-0.52563 -0.14111,0 -0.232832,0.11994 -0.306916,0.28575 -0.04586,0.10583 -0.07761,0.2293 -0.08819,0.31397 -0.02822,0.20814 -0.04586,0.26458 -0.05292,0.44802 -0.0071,0.0106 -0.0247,0.0247 -0.04939,0.0423 -0.02822,0.0176 -0.05997,0.0388 -0.05997,0.0988 0,0.0494 0.02117,0.0847 0.08819,0.11995 z"
         id="path885" />
      <path
         d="m 30.954484,119.21482 c 0,0.0635 0.05292,0.11289 0.116417,0.11289 0.137583,0 0.137583,-0.19755 0.137583,-0.26458 0,-0.0318 0,-0.10936 -0.04233,-1.12183 0,-0.0917 0,-0.20108 0.01411,-0.29633 l 0.253999,-0.0388 c 0,0.0141 -0.0035,0.0176 -0.0035,0.0388 0,0.0635 0.04939,0.11289 0.112889,0.11289 0.105833,0 0.134055,-0.11642 0.134055,-0.20109 0,-0.10936 -0.07408,-0.1905 -0.183444,-0.1905 -0.02117,0 -0.0388,0 -0.751415,0.13053 l -0.20461,0.0388 c -0.07408,0.0282 -0.127,0.0847 -0.127,0.1658 0,0.067 0.04586,0.127 0.119944,0.127 0.05997,0 0.09525,-0.0776 0.119944,-0.0776 l 0.289277,-0.06 c 0,0.0106 -0.0035,0.0705 -0.0035,0.26811 l 0.04233,1.03363 -0.01058,0.15523 c -0.0035,0.0247 -0.01411,0.0423 -0.01411,0.067 z"
         id="path887" />
      <path
         d="m 32.647809,119.32419 c 0.109361,0 0.28575,-0.0706 0.28575,-0.22578 0,-0.067 -0.05292,-0.11995 -0.119944,-0.11995 -0.05292,0 -0.09878,0.0282 -0.112889,0.0741 -0.01411,0.0318 -0.0635,0.0318 -0.112889,0.0318 h -0.01411 c -0.06703,0.004 -0.148166,0.007 -0.215194,0.007 -0.186972,0 -0.211666,-0.0706 -0.211666,-0.254 0,-0.0282 0.0035,-0.0635 0.0035,-0.1905 0.07055,-0.004 0.130527,-0.0423 0.186972,-0.0741 0.02822,-0.0141 0.04939,-0.0247 0.09172,-0.0353 0.0071,-0.004 0.02822,-0.004 0.06703,-0.007 0.0635,0 0.105833,-0.067 0.105833,-0.12347 0,-0.0635 -0.05644,-0.12348 -0.119944,-0.12348 -0.09525,0 -0.176388,0.0318 -0.289277,0.0847 l -0.04939,0.0282 -0.0071,-0.0882 c -0.0035,-0.0282 -0.0035,-0.06 -0.0035,-0.0882 0,-0.13405 0.02469,-0.27516 0.07408,-0.47272 0.01411,-0.0564 0.370416,-0.13758 0.370416,-0.14464 0,0.004 0.0035,0.0141 0.0035,0.0212 0.01411,0.0564 0.0635,0.0952 0.123472,0.0952 0.0635,0 0.116416,-0.0564 0.116416,-0.127 0,-0.0953 -0.09172,-0.23989 -0.201083,-0.23989 -0.109361,0 -0.211666,0.0353 -0.310443,0.0776 -0.127,0.0423 -0.257528,0.0882 -0.313972,0.21167 -0.09172,0.19755 -0.09525,0.56091 -0.09525,0.81491 -0.01058,0.0423 -0.01411,0.067 -0.01411,0.0917 0,0.0212 0.0035,0.0423 0.01058,0.0741 0.02117,0.0741 0.01764,0.22578 0.02822,0.28222 0.0071,0.22578 0.09878,0.42333 0.359832,0.42333 z"
         id="path889" />
    </g>
    <g
       aria-label="mel"
       id="text543"
       style="font-size:3.52777px;font-family:'Reprise Script';-inkscape-font-specification:'Reprise Script, Normal';display:none;fill:#f3edd5;stroke-width:0.264583"
       transform="translate(0,0.52916667)"
       inkscape:label="text_mel_out">
      <path
         d="m 45.959019,117.15803 c -0.363361,0 -0.409222,0.55034 -0.416277,0.67381 0,0.0282 -0.0035,0.11289 -0.0035,0.21166 0,0.39159 0.0247,0.66675 0.04233,0.79022 0.0035,0.0247 0.03881,0.30692 0.186972,0.30692 0.06703,0 0.123472,-0.06 0.123472,-0.12347 0,-0.0388 -0.03175,-0.0988 -0.05644,-0.14464 -0.07056,-0.18697 -0.07056,-0.45155 -0.07056,-0.60678 v -0.20814 c 0,-0.0917 0,-0.14816 0.01058,-0.20461 0.02117,-0.13405 0.02117,-0.37394 0.17286,-0.45861 0.116417,0.067 0.176389,0.37042 0.176389,0.47625 0,0.0917 0.03175,0.67028 0.03175,0.99131 0,0.0917 0.02117,0.16227 0.123472,0.16227 0.102305,0 0.123472,-0.0705 0.123472,-0.16227 0,-0.32103 0.03175,-0.89958 0.03175,-0.99131 0,-0.0811 0.0635,-0.47272 0.17286,-0.47272 0.141111,0 0.151695,0.3175 0.169333,0.39864 l 0.01764,0.32808 c 0.0035,0.0459 0.0071,0.127 0.0071,0.22578 0,0.15875 -0.01411,0.35983 -0.07408,0.51858 -0.02822,0.0459 -0.05997,0.10936 -0.05997,0.14817 0,0.0635 0.05644,0.12347 0.123472,0.12347 0.148166,0 0.183444,-0.28222 0.186971,-0.30692 0,0.004 0.04233,-0.2293 0.04233,-0.79022 0,-0.0988 -0.0035,-0.18344 -0.0035,-0.21166 -0.0071,-0.12347 -0.05292,-0.67381 -0.416277,-0.67381 -0.172861,0 -0.278694,0.2152 -0.321027,0.3422 -0.04233,-0.14817 -0.148166,-0.3422 -0.321027,-0.3422 z"
         id="path1251" />
      <path
         d="m 47.959262,119.13711 c 0.109361,0 0.285749,-0.0706 0.285749,-0.22577 0,-0.067 -0.05292,-0.11995 -0.119944,-0.11995 -0.05292,0 -0.09878,0.0282 -0.112888,0.0741 -0.01411,0.0318 -0.0635,0.0318 -0.112889,0.0318 h -0.01411 c -0.06703,0.004 -0.148167,0.007 -0.215194,0.007 -0.186972,0 -0.211666,-0.0706 -0.211666,-0.254 0,-0.0282 0.0035,-0.0635 0.0035,-0.1905 0.07056,-0.004 0.130528,-0.0423 0.186972,-0.0741 0.02822,-0.0141 0.04939,-0.0247 0.09172,-0.0353 0.0071,-0.004 0.02822,-0.004 0.06703,-0.007 0.0635,0 0.105833,-0.067 0.105833,-0.12347 0,-0.0635 -0.05644,-0.12347 -0.119944,-0.12347 -0.09525,0 -0.176389,0.0318 -0.289277,0.0847 l -0.04939,0.0282 -0.0071,-0.0882 c -0.0035,-0.0282 -0.0035,-0.06 -0.0035,-0.0882 0,-0.13405 0.02469,-0.27517 0.07408,-0.47272 0.01411,-0.0564 0.370416,-0.13758 0.370416,-0.14464 0,0.004 0.0035,0.0141 0.0035,0.0212 0.01411,0.0564 0.0635,0.0953 0.123472,0.0953 0.0635,0 0.116417,-0.0564 0.116417,-0.127 0,-0.0952 -0.09172,-0.23989 -0.201083,-0.23989 -0.109361,0 -0.211666,0.0353 -0.310444,0.0776 -0.127,0.0423 -0.257527,0.0882 -0.313972,0.21167 -0.09172,0.19755 -0.09525,0.56091 -0.09525,0.81491 -0.01058,0.0423 -0.01411,0.067 -0.01411,0.0917 0,0.0212 0.0035,0.0423 0.01058,0.0741 0.02117,0.0741 0.01764,0.22577 0.02822,0.28222 0.0071,0.22578 0.09878,0.42333 0.359833,0.42333 z"
         id="path1253" />
      <path
         d="m 48.424921,119.01717 c 0,0.0741 0.05645,0.12347 0.123472,0.12347 0.03175,0 0.04939,-0.007 0.06703,-0.0141 0.04586,-0.0212 0.09172,-0.0282 0.134055,-0.0282 0.05644,0 0.102305,0.0106 0.105833,0.0141 0.02822,0.0106 0.05644,0.0212 0.130528,0.0282 h 0.09878 c 0.09172,0 0.215194,-0.0988 0.215194,-0.19403 0,-0.0706 -0.05644,-0.13052 -0.127,-0.13052 -0.05292,0 -0.08819,0.0353 -0.10936,0.0635 l -0.04233,0.004 h -0.01411 c -0.05292,0 -0.09878,-0.0141 -0.134055,-0.0282 -0.03175,-0.007 -0.07761,-0.0212 -0.123472,-0.0212 -0.01058,0 -0.02117,0.004 -0.03175,0.004 v -0.0917 c 0,-0.19403 -0.01058,-0.36689 -0.02117,-0.54328 v -0.0176 c 0,-0.0106 -0.0035,-0.0176 -0.0035,-0.0282 -0.01058,-0.17639 -0.0247,-0.34572 -0.0247,-0.50447 0,-0.067 0.0035,-0.14817 0.01058,-0.21872 0.01058,-0.0494 0.04233,-0.0882 0.04233,-0.14464 0,-0.0705 -0.05997,-0.127 -0.130528,-0.127 -0.119944,0 -0.162277,0.17639 -0.165805,0.26458 0,0.0423 -0.0035,0.0882 -0.0035,0.13053 0,0.15522 0.01058,0.31397 0.02117,0.51858 v 0.0282 c 0.01411,0.22225 0.02469,0.44802 0.02469,0.62088 0,0.0564 0,0.10584 -0.0035,0.14817 -0.01058,0.0176 -0.03881,0.10583 -0.03881,0.14464 z"
         id="path1255" />
    </g>
    <path
       style="fill:#ffffff;stroke:#ffffff;stroke-width:0.264583"
       d="M 37.137101,96.141406 H 47.239888"
       id="path1146" />
    <path
       style="fill:#ffffff;stroke:#ffffff;stroke-width:0.264583"
       d="M 13.470385,96.141406 H 23.573172"
       id="path1146-9" />
    <g
       aria-label="gate"
       id="text655"
       style="display:inline;font-size:3.52777px;font-family:'Reprise Script';-inkscape-font-specification:'Reprise Script, Normal';fill:#f3edd5;stroke-width:0.264583">
      <path
         d="m 17.998806,85.354271 c 0.123472,0 0.3556,-0.0049 0.48895,-0.07408 0.03951,0.03951 0.07408,0.06914 0.108655,0.06914 0.09384,0 0.167922,-0.07902 0.167922,-0.172861 0,-0.07902 -0.05433,-0.148167 -0.08396,-0.212372 -0.113594,-0.212373 -0.13335,-0.760589 -0.13335,-0.814917 0,-0.01482 0.2667,-0.03457 0.2667,-0.192617 0,-0.113594 -0.08396,-0.182739 -0.1778,-0.182739 -0.123472,0 -0.227189,0.06915 -0.340783,0.143228 -0.108656,0.07408 -0.207433,0.138289 -0.340784,0.138289 -0.103716,0.0099 -0.162983,0.08396 -0.162983,0.172861 0,0.09878 0.06421,0.1778 0.172861,0.1778 0.118534,0 0.192617,-0.06914 0.281517,-0.06914 0.0099,0 0.03951,0.330905 0.03951,0.414866 0.0049,0.06914 0.0049,0.172862 0.0049,0.217312 -0.02469,0.0099 -0.06914,0.01482 -0.0889,0.01976 -0.01482,0.0049 -0.118533,0.0099 -0.237067,0.0099 -0.128411,0 -0.271639,-0.0049 -0.350661,-0.03457 -0.103717,-0.03457 -0.123472,-0.301273 -0.128411,-0.414867 v -0.04445 c 0,-0.4445 0.06914,-0.701323 0.207433,-1.126067 0.06421,-0.153106 0.22225,-0.449439 0.375356,-0.449439 0.153106,0 0.1778,0.13335 0.202494,0.256822 0,0.0049 0.0049,0.01482 0.0049,0.01976 0,0.0049 0.0049,0.0099 0.0049,0.01482 0.02963,0.118534 0.04939,0.212373 0.182739,0.212373 0.09878,0 0.1778,-0.08396 0.1778,-0.1778 0,-0.306211 -0.227189,-0.671689 -0.513644,-0.671689 -0.429684,0 -0.651934,0.40005 -0.770467,0.701322 -0.04939,0.128411 -0.0889,0.2667 -0.123472,0.414867 -0.02469,0.09878 -0.06421,0.281517 -0.07902,0.434622 -0.0049,0.05433 -0.0099,0.276578 -0.0099,0.429684 v 0.09384 c 0.0049,0.321028 0.192616,0.686506 0.587727,0.686506 z"
         style="font-size:4.93889px;fill:#000000"
         id="path850" />
      <path
         d="m 19.406387,84.001015 c 0.04445,-0.296333 0.07902,-0.770467 0.246944,-1.0668 0.103717,0.01482 0.192617,0.301272 0.207434,0.390172 0.01975,0.118534 0.04445,0.286456 0.0642,0.454378 z m -0.395111,1.145823 c 0,0.103716 0.04939,0.207433 0.1778,0.207433 0.09878,0 0.1778,-0.08396 0.1778,-0.1778 0,-0.01976 0,-0.04445 -0.0049,-0.05927 0.0049,-0.306211 0,-0.4445 0.01975,-0.75565 0.187678,-0.07902 0.474134,-0.192617 0.567973,-0.217311 v 1.027289 c 0,0.108656 0.06914,0.182739 0.1778,0.182739 0.09878,0 0.182739,-0.07408 0.182739,-0.182739 0.0049,-0.0099 0.01482,-0.04939 0.01482,-0.301272 0,-0.192617 -0.0049,-0.508706 -0.03457,-1.037167 -0.01975,-0.296334 -0.03457,-0.395111 -0.05433,-0.493889 0,-0.0099 -0.0049,-0.01482 -0.0049,-0.02469 -0.05433,-0.321027 -0.162983,-0.726016 -0.558094,-0.735894 -0.197556,0 -0.325967,0.167922 -0.429684,0.40005 -0.06421,0.148167 -0.108655,0.321028 -0.123472,0.439561 -0.03951,0.291395 -0.06421,0.370417 -0.07408,0.627239 -0.0099,0.01482 -0.03457,0.03457 -0.06914,0.05927 -0.03951,0.02469 -0.08396,0.05433 -0.08396,0.138289 0,0.06914 0.02963,0.118533 0.123473,0.167922 z"
         style="font-size:4.93889px;fill:#000000"
         id="path852" />
      <path
         d="m 21.24365,85.196226 c 0,0.0889 0.07408,0.158045 0.162983,0.158045 0.192617,0 0.192617,-0.276578 0.192617,-0.370417 0,-0.04445 0,-0.153105 -0.05927,-1.570567 0,-0.128411 0,-0.281517 0.01976,-0.414867 l 0.3556,-0.05433 c 0,0.01976 -0.0049,0.02469 -0.0049,0.05433 0,0.0889 0.06914,0.158045 0.158044,0.158045 0.148167,0 0.187678,-0.162983 0.187678,-0.281517 0,-0.153105 -0.103717,-0.2667 -0.256822,-0.2667 -0.02963,0 -0.05433,0 -1.051984,0.182739 l -0.286455,0.05433 c -0.103717,0.03951 -0.1778,0.118533 -0.1778,0.232128 0,0.09384 0.06421,0.1778 0.167922,0.1778 0.08396,0 0.13335,-0.108656 0.167922,-0.108656 l 0.404989,-0.08396 c 0,0.01482 -0.0049,0.09878 -0.0049,0.375356 l 0.05927,1.447094 -0.01482,0.217312 c -0.0049,0.03457 -0.01975,0.05927 -0.01975,0.09384 z"
         style="font-size:4.93889px;fill:#000000"
         id="path854" />
      <path
         d="m 23.61431,85.349332 c 0.153106,0 0.40005,-0.09878 0.40005,-0.316089 0,-0.09384 -0.07408,-0.167922 -0.167922,-0.167922 -0.07408,0 -0.138289,0.03951 -0.158044,0.103717 -0.01976,0.04445 -0.0889,0.04445 -0.158045,0.04445 h -0.01975 c -0.09384,0.0049 -0.207434,0.0099 -0.301273,0.0099 -0.261761,0 -0.296333,-0.09878 -0.296333,-0.3556 0,-0.03951 0.0049,-0.0889 0.0049,-0.2667 0.09878,-0.0049 0.182739,-0.05927 0.261761,-0.103717 0.03951,-0.01976 0.06915,-0.03457 0.128411,-0.04939 0.0099,-0.0049 0.03951,-0.0049 0.09384,-0.0099 0.0889,0 0.148167,-0.09384 0.148167,-0.172861 0,-0.0889 -0.07902,-0.172861 -0.167922,-0.172861 -0.13335,0 -0.246945,0.04445 -0.404989,0.118533 l -0.06915,0.03951 -0.0099,-0.123472 c -0.0049,-0.03951 -0.0049,-0.08396 -0.0049,-0.123473 0,-0.187677 0.03457,-0.385233 0.103717,-0.661811 0.01976,-0.07902 0.518584,-0.192616 0.518584,-0.202494 0,0.0049 0.0049,0.01976 0.0049,0.02963 0.01976,0.07902 0.0889,0.13335 0.172862,0.13335 0.0889,0 0.162983,-0.07902 0.162983,-0.1778 0,-0.13335 -0.128411,-0.335844 -0.281517,-0.335844 -0.153105,0 -0.296333,0.04939 -0.434622,0.108655 -0.1778,0.05927 -0.360539,0.123472 -0.439561,0.296334 -0.128411,0.276577 -0.13335,0.785283 -0.13335,1.140883 -0.01482,0.05927 -0.01976,0.09384 -0.01976,0.128411 0,0.02963 0.0049,0.05927 0.01482,0.103717 0.02963,0.103717 0.02469,0.316089 0.03951,0.395111 0.0099,0.316089 0.138289,0.592667 0.503767,0.592667 z"
         style="font-size:4.93889px;fill:#000000"
         id="path856" />
    </g>
    <g
       aria-label="tie"
       id="text1457"
       style="font-size:4.9389px;font-family:'Reprise Script';-inkscape-font-specification:'Reprise Script, Normal';display:inline;fill:#ffffff;stroke:#ffffff;stroke-width:0.264583"
       transform="translate(-12.964583,5.556256)">
      <path
         d="m 40.36194,79.635038 c 0,0.0889 0.07408,0.158045 0.162984,0.158045 0.192617,0 0.192617,-0.276578 0.192617,-0.370417 0,-0.04445 0,-0.153106 -0.05927,-1.570571 0,-0.128411 0,-0.281517 0.01976,-0.414867 l 0.355601,-0.05433 c 0,0.01976 -0.0049,0.02469 -0.0049,0.05433 0,0.0889 0.06914,0.158045 0.158045,0.158045 0.148167,0 0.187678,-0.162984 0.187678,-0.281518 0,-0.153106 -0.103717,-0.2667 -0.256823,-0.2667 -0.02963,0 -0.05433,0 -1.051986,0.182739 l -0.286456,0.05433 c -0.103717,0.03951 -0.1778,0.118534 -0.1778,0.232128 0,0.09384 0.06421,0.177801 0.167922,0.177801 0.08396,0 0.133351,-0.108656 0.167923,-0.108656 l 0.40499,-0.08396 c 0,0.01482 -0.0049,0.09878 -0.0049,0.375356 l 0.05927,1.447098 -0.01482,0.217311 c -0.0049,0.03457 -0.01976,0.05927 -0.01976,0.09384 z"
         style="fill:#000000;stroke:#000000;stroke-opacity:0"
         id="path2568" />
      <path
         d="m 41.769521,79.333765 c 0,0.113595 -0.02963,0.133351 -0.02963,0.321029 0,0.02469 0.02963,0.138289 0.187678,0.138289 0.09878,0 0.202495,-0.03951 0.202495,-0.207434 0,-0.04939 -0.01482,-0.09878 -0.03951,-0.123472 -0.01482,-0.217312 -0.01482,-0.409929 -0.01482,-0.602546 v -0.553157 c 0,-0.237067 -0.03457,-0.563034 -0.03457,-0.834674 v -0.02469 c 0,-0.0889 -0.0099,-0.286457 -0.167923,-0.286457 -0.128411,0 -0.207433,0.103717 -0.207433,0.217312 0,0.08396 0.05927,0.158045 0.05927,0.227189 0.03457,0.291396 0.04445,0.533402 0.04445,0.745774 0,0.22719 -0.0099,0.419807 -0.0099,0.637118 0,0.108656 0,0.222251 0.0099,0.345723 z"
         style="fill:#000000;stroke:#000000;stroke-opacity:0"
         id="path2570" />
      <path
         d="m 43.443803,79.788144 c 0.153106,0 0.400051,-0.09878 0.400051,-0.316089 0,-0.09384 -0.07408,-0.167923 -0.167923,-0.167923 -0.07408,0 -0.138289,0.03951 -0.158044,0.103717 -0.01976,0.04445 -0.0889,0.04445 -0.158045,0.04445 h -0.01976 c -0.09384,0.0049 -0.207434,0.0099 -0.301273,0.0099 -0.261761,0 -0.296334,-0.09878 -0.296334,-0.355601 0,-0.03951 0.0049,-0.0889 0.0049,-0.266701 0.09878,-0.0049 0.18274,-0.05927 0.261762,-0.103716 0.03951,-0.01976 0.06914,-0.03457 0.128411,-0.04939 0.0099,-0.0049 0.03951,-0.0049 0.09384,-0.0099 0.0889,0 0.148167,-0.09384 0.148167,-0.172862 0,-0.0889 -0.07902,-0.172861 -0.167922,-0.172861 -0.13335,0 -0.246945,0.04445 -0.40499,0.118533 l -0.06914,0.03951 -0.0099,-0.123473 c -0.0049,-0.03951 -0.0049,-0.08396 -0.0049,-0.123472 0,-0.187679 0.03457,-0.385235 0.103717,-0.661813 0.01975,-0.07902 0.518584,-0.192617 0.518584,-0.202495 0,0.0049 0.0049,0.01976 0.0049,0.02963 0.01976,0.07902 0.0889,0.133351 0.172862,0.133351 0.0889,0 0.162983,-0.07902 0.162983,-0.177801 0,-0.13335 -0.128411,-0.335845 -0.281517,-0.335845 -0.153106,0 -0.296334,0.04939 -0.434623,0.108656 -0.177801,0.05927 -0.36054,0.123472 -0.439562,0.296334 -0.128412,0.276578 -0.133351,0.785285 -0.133351,1.140886 -0.01482,0.05927 -0.01976,0.09384 -0.01976,0.128411 0,0.02963 0.0049,0.05927 0.01482,0.103717 0.02963,0.103717 0.02469,0.31609 0.03951,0.395112 0.0099,0.31609 0.138289,0.592668 0.503767,0.592668 z"
         style="fill:#000000;stroke:#000000;stroke-opacity:0"
         id="path2572" />
    </g>
    <g
       aria-label="/"
       id="text3021"
       style="font-size:4.9389px;font-family:'Reprise Script';-inkscape-font-specification:'Reprise Script, Normal';fill:#ff00ff;stroke:#000000;stroke-width:0.264583;stroke-opacity:0">
      <path
         d="m 24.788126,85.571588 c 0,0.07408 0.07902,0.123473 0.143228,0.123473 0.07902,0 0.138289,-0.06421 0.138289,-0.143228 0,-0.03457 -0.0049,-0.05927 -0.0049,-0.103717 0,-0.01976 0.03951,-0.09384 0.05433,-0.113595 0.08396,-0.1778 0.148167,-0.355601 0.22719,-0.533401 0.06914,-0.153106 0.118533,-0.306212 0.192617,-0.469196 0.07902,-0.172861 0.13335,-0.3556 0.212372,-0.528462 0.167923,-0.345723 0.301273,-0.785285 0.44944,-1.205092 0.02469,-0.07408 0.05927,-0.143228 0.05927,-0.217311 0,-0.07902 -0.06421,-0.143228 -0.138289,-0.143228 -0.202495,0 -0.13335,0.207434 -0.325967,0.676629 l -0.948269,2.3361 c -0.01482,0.03951 -0.05927,0.09384 -0.05927,0.138289 z"
         style="fill:#000000"
         id="path3162" />
    </g>
    <text
       xml:space="preserve"
       style="font-size:4.9389px;font-family:'Reprise Script';-inkscape-font-specification:'Reprise Script, Normal';display:none;fill:#f3edd5;fill-opacity:1;stroke:#000000;stroke-width:0.264583;stroke-opacity:0"
       x="10.84792"
       y="119.19479"
       id="text550"><tspan
         sodipodi:role="line"
         id="tspan548"
         style="font-style:normal;font-variant:normal;font-weight:normal;font-stretch:normal;font-size:3.52778px;font-family:'Reprise Script';-inkscape-font-specification:'Reprise Script, Normal';font-variant-ligatures:normal;font-variant-caps:normal;font-variant-numeric:normal;font-variant-east-asian:normal;fill:#f3edd5;fill-opacity:1;stroke-width:0.264583"
         x="10.84792"
         y="119.19479">root</tspan></text>
    <text
       xml:space="preserve"
       style="font-style:normal;font-variant:normal;font-weight:normal;font-stretch:normal;font-size:3.52777px;font-family:'Reprise Script';-inkscape-font-specification:'Reprise Script, Normal';font-variant-ligatures:normal;font-variant-caps:normal;font-variant-numeric:normal;font-variant-east-asian:normal;display:none;fill:#f3edd5;fill-opacity:1;stroke:#000000;stroke-width:0.264583;stroke-opacity:0"
       x="45.493362"
       y="119.14074"
       id="text1213"><tspan
         sodipodi:role="line"
         id="tspan1211"
         style="font-style:normal;font-variant:normal;font-weight:normal;font-stretch:normal;font-size:3.52778px;font-family:'Reprise Script';-inkscape-font-specification:'Reprise Script, Normal';font-variant-ligatures:normal;font-variant-caps:normal;font-variant-numeric:normal;font-variant-east-asian:normal;stroke-width:0.264583"
         x="45.493362"
         y="119.14074">8va</tspan></text>
    <text
       xml:space="preserve"
       style="font-style:normal;font-variant:normal;font-weight:normal;font-stretch:normal;font-size:3.52777px;font-family:'Reprise Script';-inkscape-font-specification:'Reprise Script, Normal';font-variant-ligatures:normal;font-variant-caps:normal;font-variant-numeric:normal;font-variant-east-asian:normal;display:none;fill:#f3edd5;fill-opacity:1;stroke:#000000;stroke-width:0.264583;stroke-opacity:0"
       x="28.248627"
       y="119.19546"
       id="text1217"><tspan
         sodipodi:role="line"
         id="tspan1215"
         style="stroke-width:0.264583"
         x="28.248627"
         y="119.19546">trig</tspan></text>
    <g
       aria-label="root"
       id="text1366"
       style="font-size:4.9389px;font-family:'Reprise Script';-inkscape-font-specification:'Reprise Script, Normal';display:inline;fill:#f3edd5;stroke:#000000;stroke-width:0.264583;stroke-opacity:0"
       inkscape:label="text_root_out"
       transform="translate(0,0.52916667)">
      <path
         d="m 10.946698,118.24935 c -0.04586,0.0353 -0.04586,0.0741 -0.04586,0.14111 0,0.0423 0.01411,0.0811 0.03528,0.11994 0.02822,0.06 0.03175,0.11995 0.03175,0.17639 0,0.0423 -0.0035,0.0847 -0.0035,0.127 0,0.0212 0,0.0459 0.0035,0.067 -0.01411,0.0776 -0.02822,0.13053 -0.02822,0.1905 0,0.0635 0.05997,0.12347 0.127,0.12347 0.137583,0 0.148167,-0.17991 0.151694,-0.27516 0.127,0.10583 0.271639,0.27516 0.504473,0.27516 0.05644,0 0.172861,-0.0741 0.172861,-0.15522 0,-0.0705 -0.05644,-0.13053 -0.123472,-0.13053 -0.03175,0 -0.04939,0.0247 -0.07408,0.0247 -0.09878,0 -0.4445,-0.23636 -0.483305,-0.40922 0.0071,0 0.01411,0 0.02117,0.004 0.01764,0.004 0.03528,0.007 0.05292,0.007 0.338667,0 0.642056,-0.3175 0.642056,-0.67381 0,-0.33514 -0.197556,-0.64911 -0.582084,-0.64911 -0.292806,0 -0.405695,0.2152 -0.405695,0.55386 z m 0.229306,-0.53975 c 0,-0.17286 0.05997,-0.24695 0.208139,-0.24695 0.211667,0 0.299861,0.2152 0.299861,0.39512 0,0.23988 -0.208139,0.41275 -0.433917,0.43038 -0.04939,0 -0.05997,-0.004 -0.05997,-0.15875 z"
         style="font-size:3.52778px"
         id="path1392" />
      <path
         d="m 12.622384,118.9549 c -0.09525,0 -0.1905,-0.0212 -0.229306,-0.0459 -0.0388,-0.12347 -0.05997,-0.25752 -0.07408,-0.38452 -0.0035,-0.0388 -0.0071,-0.0952 -0.0071,-0.16228 0,-0.2152 0.02117,-0.52564 0.03528,-0.55034 0.02469,-0.1023 0.08114,-0.34572 0.183445,-0.34572 0.172861,0 0.268111,0.17992 0.331611,0.3175 0.04233,0.0882 0.07056,0.19403 0.08467,0.29986 0.0071,0.0459 0.01058,0.10231 0.01058,0.16228 0,0.0953 -0.0071,0.19756 -0.02117,0.26811 -0.01411,0.0917 -0.07761,0.33161 -0.123472,0.4057 -0.05644,0.0247 -0.123472,0.0353 -0.1905,0.0353 z m 0.176389,0.23637 c 0.179917,0 0.243417,-0.16581 0.292806,-0.30692 0.03175,-0.0988 0.05997,-0.20814 0.09172,-0.381 0.01411,-0.0811 0.02469,-0.16933 0.02469,-0.25753 0,-0.1905 -0.0388,-0.39158 -0.112889,-0.56092 -0.04939,-0.10583 -0.116416,-0.21872 -0.208139,-0.30691 -0.09172,-0.0882 -0.239889,-0.15875 -0.363361,-0.15875 -0.123472,0 -0.183444,0.0459 -0.243417,0.13052 -0.05997,0.0882 -0.165805,0.32103 -0.186972,0.48331 -0.02822,0.10583 -0.03528,0.25753 -0.03528,0.39864 0,0.10231 0.0035,0.20108 0.01058,0.27517 0.01764,0.0917 0.01411,0.21519 0.04939,0.34925 0.03528,0.14816 0.08114,0.33866 0.264584,0.33866 z"
         style="font-size:3.52778px"
         id="path1394" />
      <path
         d="m 13.948827,118.9549 c -0.09525,0 -0.1905,-0.0212 -0.229305,-0.0459 -0.03881,-0.12347 -0.05997,-0.25752 -0.07408,-0.38452 -0.0035,-0.0388 -0.0071,-0.0952 -0.0071,-0.16228 0,-0.2152 0.02117,-0.52564 0.03528,-0.55034 0.02469,-0.1023 0.08114,-0.34572 0.183445,-0.34572 0.172861,0 0.268111,0.17992 0.331611,0.3175 0.04233,0.0882 0.07056,0.19403 0.08467,0.29986 0.0071,0.0459 0.01058,0.10231 0.01058,0.16228 0,0.0953 -0.0071,0.19756 -0.02117,0.26811 -0.01411,0.0917 -0.07761,0.33161 -0.123473,0.4057 -0.05644,0.0247 -0.123472,0.0353 -0.1905,0.0353 z m 0.176389,0.23637 c 0.179917,0 0.243417,-0.16581 0.292806,-0.30692 0.03175,-0.0988 0.05997,-0.20814 0.09172,-0.381 0.01411,-0.0811 0.0247,-0.16933 0.0247,-0.25753 0,-0.1905 -0.03881,-0.39158 -0.112889,-0.56092 -0.04939,-0.10583 -0.116417,-0.21872 -0.208139,-0.30691 -0.09172,-0.0882 -0.239889,-0.15875 -0.363362,-0.15875 -0.123472,0 -0.183444,0.0459 -0.243416,0.13052 -0.05997,0.0882 -0.165806,0.32103 -0.186973,0.48331 -0.02822,0.10583 -0.03528,0.25753 -0.03528,0.39864 0,0.10231 0.0035,0.20108 0.01058,0.27517 0.01764,0.0917 0.01411,0.21519 0.04939,0.34925 0.03528,0.14816 0.08114,0.33866 0.264583,0.33866 z"
         style="font-size:3.52778px"
         id="path1396" />
      <path
         d="m 15.257632,119.0819 c 0,0.0635 0.05292,0.11289 0.116416,0.11289 0.137584,0 0.137584,-0.19755 0.137584,-0.26458 0,-0.0318 0,-0.10936 -0.04233,-1.12183 0,-0.0917 0,-0.20109 0.01411,-0.29634 l 0.254001,-0.0388 c 0,0.0141 -0.0035,0.0176 -0.0035,0.0388 0,0.0635 0.04939,0.11289 0.112889,0.11289 0.105833,0 0.134055,-0.11642 0.134055,-0.20108 0,-0.10936 -0.07408,-0.1905 -0.183444,-0.1905 -0.02117,0 -0.03881,0 -0.751417,0.13053 l -0.204612,0.0388 c -0.07408,0.0282 -0.127,0.0847 -0.127,0.16581 0,0.067 0.04586,0.127 0.119945,0.127 0.05997,0 0.09525,-0.0776 0.119944,-0.0776 l 0.289278,-0.06 c 0,0.0106 -0.0035,0.0706 -0.0035,0.26812 l 0.04233,1.03363 -0.01058,0.15523 c -0.0035,0.0247 -0.01411,0.0423 -0.01411,0.067 z"
         style="font-size:3.52778px"
         id="path1398" />
    </g>
    <g
       aria-label="8va"
       id="text1370"
       style="font-size:3.52777px;font-family:'Reprise Script';-inkscape-font-specification:'Reprise Script, Normal';fill:#f3edd5;stroke:#000000;stroke-width:0.264583;stroke-opacity:0"
       inkscape:label="text_8va_out"
       transform="translate(0,0.52916667)">
      <path
         d="m 45.920224,117.22868 c 0,-0.16933 0.105833,-0.29633 0.282222,-0.29633 0.183445,0 0.335139,0.14111 0.335139,0.32455 0,0.19051 -0.116416,0.33867 -0.324555,0.33867 -0.186973,0 -0.275167,-0.16228 -0.292806,-0.32808 z m -0.112889,1.13242 c 0,-0.21519 0.141111,-0.47625 0.359833,-0.47625 0.278695,0 0.451556,0.31044 0.451556,0.56092 0,0.22577 -0.134055,0.42686 -0.388056,0.42686 -0.239889,0 -0.405694,-0.24695 -0.423333,-0.47272 z m -0.261056,0.0353 c 0.03881,0.36689 0.299861,0.74083 0.705556,0.74083 0.366889,0 0.592667,-0.25753 0.620889,-0.61736 0,-0.34219 -0.127,-0.56092 -0.3175,-0.75494 0.194028,-0.10937 0.243417,-0.38453 0.243417,-0.51859 0,-0.32103 -0.313972,-0.57503 -0.589139,-0.57503 -0.303389,0 -0.560917,0.19756 -0.560917,0.52917 0,0.17992 0.07056,0.35278 0.197555,0.51153 -0.1905,0.13405 -0.296333,0.37394 -0.299861,0.62794 z"
         style="font-size:3.52778px"
         id="path1385" />
      <path
         d="m 47.550054,118.93613 c 0,0.004 0.0035,0.007 0.0035,0.0141 0.01411,0.0635 0.04586,0.1905 0.119945,0.1905 0.09172,0 0.112889,-0.0741 0.130528,-0.14464 l 0.0071,-0.0212 c 0.01411,-0.0353 0.373945,-1.16416 0.444501,-1.35819 0.01764,-0.0494 0.04233,-0.10231 0.04233,-0.2152 0,-0.0776 -0.03528,-0.17639 -0.127,-0.17639 -0.07056,0 -0.127,0.0564 -0.127,0.127 0,0.0318 0.01058,0.0529 0.01058,0.0741 0,0.06 -0.06703,0.25753 -0.08114,0.2928 -0.09525,0.26106 -0.183444,0.54328 -0.296333,0.8502 -0.09172,-0.27517 -0.208139,-0.63853 -0.310445,-0.92428 -0.02469,-0.18344 -0.102306,-0.29986 -0.194028,-0.29986 -0.0635,0 -0.123472,0.0459 -0.123472,0.11994 0,0.0459 0.02822,0.10584 0.04939,0.14817 z"
         style="font-size:3.52778px"
         id="path1387" />
      <path
         d="m 48.636606,118.17413 c 0.03175,-0.21167 0.05644,-0.55034 0.176389,-0.762 0.07408,0.0106 0.137583,0.21519 0.148166,0.27869 0.01411,0.0847 0.03175,0.20461 0.04586,0.32456 z m -0.282223,0.81844 c 0,0.0741 0.03528,0.14817 0.127,0.14817 0.07056,0 0.127,-0.06 0.127,-0.127 0,-0.0141 0,-0.0318 -0.0035,-0.0423 0.0035,-0.21873 0,-0.3175 0.01411,-0.53975 0.134055,-0.0564 0.338667,-0.13759 0.405694,-0.15523 v 0.73378 c 0,0.0776 0.04939,0.13053 0.127,0.13053 0.07056,0 0.130528,-0.0529 0.130528,-0.13053 0.0035,-0.007 0.01058,-0.0353 0.01058,-0.21519 0,-0.13759 -0.0035,-0.36336 -0.02469,-0.74084 -0.01411,-0.21166 -0.02469,-0.28222 -0.03881,-0.35277 0,-0.007 -0.0035,-0.0106 -0.0035,-0.0176 -0.03881,-0.22931 -0.116417,-0.51859 -0.398639,-0.52564 -0.141112,0 -0.232834,0.11994 -0.306917,0.28575 -0.04586,0.10583 -0.07761,0.2293 -0.08819,0.31397 -0.02822,0.20814 -0.04586,0.26458 -0.05292,0.44803 -0.0071,0.0106 -0.0247,0.0247 -0.04939,0.0423 -0.02822,0.0176 -0.05997,0.0388 -0.05997,0.0988 0,0.0494 0.02117,0.0847 0.08819,0.11994 z"
         style="font-size:3.52778px"
         id="path1389" />
    </g>
    <g
       aria-label="trig"
       id="text1374"
       style="font-size:3.52777px;font-family:'Reprise Script';-inkscape-font-specification:'Reprise Script, Normal';fill:#f3edd5;stroke:#000000;stroke-width:0.264583;stroke-opacity:0"
       inkscape:label="text_trig_out"
       transform="translate(0,0.52916667)">
      <path
         d="m 28.848348,119.08257 c 0,0.0635 0.05292,0.11289 0.116416,0.11289 0.137583,0 0.137583,-0.19756 0.137583,-0.26459 0,-0.0318 0,-0.10936 -0.04233,-1.12183 0,-0.0917 0,-0.20108 0.01411,-0.29633 l 0.253999,-0.0388 c 0,0.0141 -0.0035,0.0176 -0.0035,0.0388 0,0.0635 0.04939,0.11289 0.112888,0.11289 0.105833,0 0.134055,-0.11642 0.134055,-0.20108 0,-0.10936 -0.07408,-0.1905 -0.183444,-0.1905 -0.02117,0 -0.0388,0 -0.751415,0.13052 l -0.20461,0.0388 c -0.07408,0.0282 -0.127,0.0847 -0.127,0.16581 0,0.067 0.04586,0.127 0.119944,0.127 0.05997,0 0.09525,-0.0776 0.119944,-0.0776 l 0.289278,-0.06 c 0,0.0106 -0.0035,0.0706 -0.0035,0.26811 l 0.04233,1.03364 -0.01058,0.15522 c -0.0035,0.0247 -0.01411,0.0423 -0.01411,0.067 z"
         id="path1376" />
      <path
         d="m 29.825535,118.25002 c -0.04586,0.0353 -0.04586,0.0741 -0.04586,0.14111 0,0.0423 0.01411,0.0811 0.03528,0.11994 0.02822,0.06 0.03175,0.11994 0.03175,0.17639 0,0.0423 -0.0035,0.0847 -0.0035,0.127 0,0.0212 0,0.0459 0.0035,0.067 -0.01411,0.0776 -0.02822,0.13052 -0.02822,0.1905 0,0.0635 0.05997,0.12347 0.127,0.12347 0.137583,0 0.148166,-0.17992 0.151694,-0.27517 0.126999,0.10583 0.271638,0.27517 0.504471,0.27517 0.05644,0 0.172861,-0.0741 0.172861,-0.15522 0,-0.0706 -0.05645,-0.13053 -0.123472,-0.13053 -0.03175,0 -0.04939,0.0247 -0.07408,0.0247 -0.09878,0 -0.444499,-0.23636 -0.483304,-0.40922 0.0071,0 0.01411,0 0.02117,0.004 0.01764,0.004 0.03528,0.007 0.05292,0.007 0.338666,0 0.642054,-0.31749 0.642054,-0.6738 0,-0.33514 -0.197555,-0.64911 -0.582082,-0.64911 -0.292805,0 -0.405693,0.21519 -0.405693,0.55386 z m 0.229305,-0.53975 c 0,-0.17286 0.05997,-0.24695 0.208139,-0.24695 0.211666,0 0.29986,0.2152 0.29986,0.39511 0,0.23989 -0.208138,0.41275 -0.433915,0.43039 -0.04939,0 -0.05997,-0.004 -0.05997,-0.15875 z"
         id="path1378" />
      <path
         d="m 31.024973,118.86737 c 0,0.0811 -0.02117,0.0953 -0.02117,0.22931 0,0.0176 0.02117,0.0988 0.134055,0.0988 0.07056,0 0.144638,-0.0282 0.144638,-0.14817 0,-0.0353 -0.01058,-0.0705 -0.02822,-0.0882 -0.01058,-0.15523 -0.01058,-0.29281 -0.01058,-0.43039 v -0.39511 c 0,-0.16933 -0.02469,-0.40217 -0.02469,-0.59619 v -0.0176 c 0,-0.0635 -0.0071,-0.20461 -0.119945,-0.20461 -0.09172,0 -0.148166,0.0741 -0.148166,0.15522 0,0.06 0.04233,0.11289 0.04233,0.16228 0.0247,0.20813 0.03175,0.38099 0.03175,0.53269 0,0.16228 -0.0071,0.29986 -0.0071,0.45508 0,0.0776 0,0.15875 0.0071,0.24694 z"
         id="path1380" />
      <path
         d="m 32.072718,119.19546 c 0.08819,0 0.253999,-0.004 0.349249,-0.0529 0.02822,0.0282 0.05292,0.0494 0.07761,0.0494 0.06703,0 0.119944,-0.0564 0.119944,-0.12347 0,-0.0564 -0.03881,-0.10584 -0.05997,-0.1517 -0.08114,-0.15169 -0.09525,-0.54327 -0.09525,-0.58208 0,-0.0106 0.1905,-0.0247 0.1905,-0.13758 0,-0.0811 -0.05997,-0.13053 -0.127,-0.13053 -0.08819,0 -0.162277,0.0494 -0.243416,0.10231 -0.07761,0.0529 -0.148166,0.0988 -0.243416,0.0988 -0.07408,0.007 -0.116417,0.06 -0.116417,0.12348 0,0.0705 0.04586,0.127 0.123472,0.127 0.08467,0 0.137583,-0.0494 0.201083,-0.0494 0.0071,0 0.02822,0.23636 0.02822,0.29633 0.0035,0.0494 0.0035,0.12347 0.0035,0.15522 -0.01764,0.007 -0.04939,0.0106 -0.0635,0.0141 -0.01058,0.004 -0.08467,0.007 -0.169333,0.007 -0.09172,0 -0.194027,-0.004 -0.250471,-0.0247 -0.07408,-0.0247 -0.08819,-0.21519 -0.09172,-0.29633 v -0.0318 c 0,-0.3175 0.04939,-0.50094 0.148166,-0.80433 0.04586,-0.10936 0.15875,-0.32103 0.26811,-0.32103 0.109361,0 0.127,0.0953 0.144639,0.18345 0,0.004 0.0035,0.0106 0.0035,0.0141 0,0.004 0.0035,0.007 0.0035,0.0106 0.02117,0.0847 0.03528,0.15169 0.130527,0.15169 0.07055,0 0.127,-0.06 0.127,-0.12699 0,-0.21873 -0.162278,-0.47978 -0.366888,-0.47978 -0.306916,0 -0.465666,0.28575 -0.550332,0.50094 -0.03528,0.0917 -0.0635,0.1905 -0.0882,0.29633 -0.01764,0.0706 -0.04586,0.20109 -0.05644,0.31045 -0.0035,0.0388 -0.0071,0.19755 -0.0071,0.30691 v 0.067 c 0.0035,0.22931 0.137583,0.49036 0.419805,0.49036 z"
         id="path1382" />
    </g>
  </g>
  <g
     inkscape:groupmode="layer"
     id="layer2"
     inkscape:label="components"
     style="display:inline">
    <circle
       style="display:inline;fill:#00ff00;stroke-width:0.264583"
       id="circle354-1"
       cx="10.506285"
       cy="83.966446"
       r="2.1689386"
       inkscape:label="gate" />
    <circle
       style="display:inline;fill:#00ff00;stroke-width:0.264583"
       id="circle354"
       cx="10.506285"
       cy="73.068291"
       r="2.1689386"
       inkscape:label="mel" />
    <circle
       style="fill:#ff0000;stroke-width:0.264583"
       id="path337"
       cx="30.48"
       cy="40.771469"
       r="2.1689386"
       inkscape:label="chord" />
    <circle
       style="display:inline;fill:#00ff00;stroke-width:0.264583"
       id="path337-0"
       cx="10.506285"
       cy="40.771469"
       r="2.1689386"
       inkscape:label="chord" />
    <circle
       style="display:inline;fill:#ff0000;stroke-width:0.264583"
       id="circle339-7"
       cx="30.48"
       cy="19.372799"
       r="2.1689386"
       inkscape:label="root" />
    <circle
       style="display:inline;fill:#00ff00;stroke-width:0.264583"
       id="circle339"
       cx="10.506285"
       cy="19.372799"
       r="2.1689386"
       inkscape:label="root" />
    <circle
       style="display:inline;fill:#00ff00;stroke-width:0.264583"
       id="path337-0-9"
       cx="49.833321"
       cy="19.488791"
       r="2.1689386"
       inkscape:label="harmony" />
    <circle
       style="display:inline;fill:#ff0000;stroke-width:0.264583"
       id="circle339-7-8"
       cx="49.833321"
       cy="40.771469"
       r="2.1689386"
       inkscape:label="harmony" />
    <circle
       style="display:inline;fill:#00ff00;stroke-width:0.264583"
       id="path337-0-9-6"
       cx="49.833321"
       cy="62.143436"
       r="2.1689386"
       inkscape:label="voicing" />
    <circle
       style="display:inline;fill:#ff0000;stroke-width:0.264583"
       id="circle339-7-8-1"
       cx="49.833321"
       cy="83.966446"
       r="2.1689386"
       inkscape:label="voicing" />
    <circle
       style="display:inline;fill:#0000ff;stroke-width:0.264583"
       id="circle349"
       cx="47.325966"
       cy="102.63169"
       r="2.1689386"
       inkscape:label="out3" />
    <circle
       style="display:inline;fill:#0000ff;stroke-width:0.264583"
       id="circle349-4"
       cx="47.325966"
       cy="112.6925"
       r="2.1689386"
       inkscape:label="mel" />
    <circle
       style="display:inline;fill:#0000ff;stroke-width:0.264583"
       id="circle347"
       cx="30.48"
       cy="102.63169"
       r="2.1689386"
       inkscape:label="out2" />
    <circle
       style="display:inline;fill:#0000ff;stroke-width:0.264583"
       id="circle345"
       cx="13.490524"
       cy="102.63169"
       r="2.1689386"
       inkscape:label="out1" />
    <circle
       style="display:inline;fill:#0000ff;stroke-width:0.264583"
       id="circle347-2"
       cx="30.48"
       cy="112.6925"
       r="2.1689386"
       inkscape:label="gate" />
    <circle
       style="display:inline;fill:#0000ff;stroke-width:0.264583"
       id="circle345-3"
       cx="13.490524"
       cy="112.6925"
       r="2.1689386"
       inkscape:label="bass" />
  </g>
</svg>
